<svg xmlns="http://www.w3.org/2000/svg" viewBox="0 0 800 500" font-family="system-ui, -apple-system, sans-serif">
  <rect width="800" height="500" fill="#fafafa"/>
  <text x="400" y="35" text-anchor="middle" font-size="16" fill="#666" font-weight="600">Normenkategorien</text>
  <rect x="40" y="60" width="220" height="420" rx="8" fill="#f5f5f5" stroke="#d4d4d4" stroke-width="1.5"/>
  <text x="150" y="90" text-anchor="middle" font-size="15" fill="#666" font-weight="600">A</text>
  <rect x="55" y="110" width="190" height="36" rx="4" fill="none" stroke="#999" stroke-width="1" stroke-dasharray="6 3"/>
  <rect x="55" y="158" width="190" height="36" rx="4" fill="none" stroke="#999" stroke-width="1" stroke-dasharray="6 3"/>
  <rect x="55" y="206" width="190" height="36" rx="4" fill="none" stroke="#999" stroke-width="1" stroke-dasharray="6 3"/>
  <rect x="55" y="254" width="190" height="36" rx="4" fill="none" stroke="#999" stroke-width="1" stroke-dasharray="6 3"/>
  <rect x="55" y="302" width="190" height="36" rx="4" fill="none" stroke="#999" stroke-width="1" stroke-dasharray="6 3"/>
  <rect x="55" y="350" width="190" height="36" rx="4" fill="none" stroke="#999" stroke-width="1" stroke-dasharray="6 3"/>
  <rect x="55" y="398" width="190" height="36" rx="4" fill="none" stroke="#999" stroke-width="1" stroke-dasharray="6 3"/>
  <rect x="55" y="440" width="190" height="30" rx="4" fill="none" stroke="#999" stroke-width="1" stroke-dasharray="6 3" opacity="0"/>
  <rect x="290" y="60" width="220" height="420" rx="8" fill="#f5f5f5" stroke="#d4d4d4" stroke-width="1.5"/>
  <text x="400" y="90" text-anchor="middle" font-size="15" fill="#666" font-weight="600">B</text>
  <rect x="305" y="110" width="190" height="36" rx="4" fill="none" stroke="#999" stroke-width="1" stroke-dasharray="6 3"/>
  <rect x="305" y="158" width="190" height="36" rx="4" fill="none" stroke="#999" stroke-width="1" stroke-dasharray="6 3"/>
  <rect x="305" y="206" width="190" height="36" rx="4" fill="none" stroke="#999" stroke-width="1" stroke-dasharray="6 3"/>
  <rect x="305" y="254" width="190" height="36" rx="4" fill="none" stroke="#999" stroke-width="1" stroke-dasharray="6 3"/>
  <rect x="305" y="302" width="190" height="36" rx="4" fill="none" stroke="#999" stroke-width="1" stroke-dasharray="6 3"/>
  <rect x="305" y="350" width="190" height="36" rx="4" fill="none" stroke="#999" stroke-width="1" stroke-dasharray="6 3"/>
  <rect x="305" y="398" width="190" height="36" rx="4" fill="none" stroke="#999" stroke-width="1" stroke-dasharray="6 3"/>
  <rect x="540" y="60" width="220" height="420" rx="8" fill="#f5f5f5" stroke="#d4d4d4" stroke-width="1.5"/>
  <text x="650" y="90" text-anchor="middle" font-size="15" fill="#666" font-weight="600">C</text>
  <rect x="555" y="110" width="190" height="36" rx="4" fill="none" stroke="#999" stroke-width="1" stroke-dasharray="6 3"/>
  <rect x="555" y="158" width="190" height="36" rx="4" fill="none" stroke="#999" stroke-width="1" stroke-dasharray="6 3"/>
  <rect x="555" y="206" width="190" height="36" rx="4" fill="none" stroke="#999" stroke-width="1" stroke-dasharray="6 3"/>
  <rect x="555" y="254" width="190" height="36" rx="4" fill="none" stroke="#999" stroke-width="1" stroke-dasharray="6 3"/>
  <rect x="555" y="302" width="190" height="36" rx="4" fill="none" stroke="#999" stroke-width="1" stroke-dasharray="6 3"/>
  <rect x="555" y="350" width="190" height="36" rx="4" fill="none" stroke="#999" stroke-width="1" stroke-dasharray="6 3"/>
  <rect x="555" y="398" width="190" height="36" rx="4" fill="none" stroke="#999" stroke-width="1" stroke-dasharray="6 3"/>
</svg>
