<svg xmlns="http://www.w3.org/2000/svg" viewBox="0 0 800 450" width="800" height="450">
  <rect width="800" height="450" fill="#ffffff" rx="8"/>

  <!-- Title -->
  <text x="400" y="32" text-anchor="middle" font-family="'DM Sans',system-ui,sans-serif" font-size="16" font-weight="700" fill="#1e293b">Normenpyramide — Beschrifte die Stufen</text>

  <!-- Pyramid layers (bottom-up = narrow-wide) -->
  <!-- Layer 5 (bottom, widest): Gemeinderecht -->
  <polygon points="80,410 720,410 660,350 140,350" fill="#dcfce7" stroke="#22c55e" stroke-width="1.5"/>
  <text x="400" y="388" text-anchor="middle" font-family="'DM Sans',system-ui,sans-serif" font-size="12" fill="#166534">Stufe 5 — breiteste Basis</text>

  <!-- Layer 4: Kantonales Recht -->
  <polygon points="140,350 660,350 600,290 200,290" fill="#bbf7d0" stroke="#22c55e" stroke-width="1.5"/>
  <text x="400" y="328" text-anchor="middle" font-family="'DM Sans',system-ui,sans-serif" font-size="12" fill="#166534">Stufe 4</text>

  <!-- Layer 3: Verordnungen -->
  <polygon points="200,290 600,290 540,230 260,230" fill="#86efac" stroke="#16a34a" stroke-width="1.5"/>
  <text x="400" y="268" text-anchor="middle" font-family="'DM Sans',system-ui,sans-serif" font-size="12" fill="#14532d">Stufe 3</text>

  <!-- Layer 2: Bundesgesetze -->
  <polygon points="260,230 540,230 480,170 320,170" fill="#4ade80" stroke="#15803d" stroke-width="1.5"/>
  <text x="400" y="208" text-anchor="middle" font-family="'DM Sans',system-ui,sans-serif" font-size="12" fill="#14532d">Stufe 2</text>

  <!-- Layer 1 (top, narrowest): BV -->
  <polygon points="320,170 480,170 400,80" fill="#22c55e" stroke="#166534" stroke-width="1.5"/>
  <text x="400" y="145" text-anchor="middle" font-family="'DM Sans',system-ui,sans-serif" font-size="11" font-weight="700" fill="#ffffff">Stufe 1</text>

  <!-- Arrow: lex superior -->
  <line x1="740" y1="410" x2="740" y2="90" stroke="#94a3b8" stroke-width="1.5"/>
  <polygon points="733,93 747,93 740,80" fill="#94a3b8"/>
  <text x="760" y="260" text-anchor="start" font-family="'DM Sans',system-ui,sans-serif" font-size="11" fill="#64748b" transform="rotate(90,760,260)">Höhere Rangstufe</text>

  <!-- Red numbered circles with dashed lines pointing into layers -->
  <!-- 1: BV (top) -->

  <!-- 2: Bundesgesetze -->

  <!-- 3: Verordnungen -->

  <!-- 4: Kantonales Recht -->

  <!-- 5: Gemeinderecht -->
</svg>
