<svg xmlns="http://www.w3.org/2000/svg" viewBox="0 0 800 450" width="800" height="450">
  <rect width="800" height="450" fill="#ffffff" rx="8"/>

  <!-- Title -->
  <text x="400" y="32" text-anchor="middle" font-family="'DM Sans',system-ui,sans-serif" font-size="16" font-weight="700" fill="#1e293b">Mietrecht — Beschrifte das Systematik-Diagramm</text>

  <!-- Step 1: Mietvertrag -->
  <rect x="270" y="52" width="260" height="52" rx="8" fill="#22c55e" stroke="#15803d" stroke-width="2"/>
  <text x="400" y="74" text-anchor="middle" font-family="'DM Sans',system-ui,sans-serif" font-size="13" font-weight="700" fill="#ffffff">Mietvertrag (OR 253 ff.)</text>
  <text x="400" y="93" text-anchor="middle" font-family="'DM Sans',system-ui,sans-serif" font-size="11" fill="#dcfce7">Gebrauchsüberlassung gegen Mietzins</text>

  <!-- Arrow down -->
  <line x1="400" y1="104" x2="400" y2="130" stroke="#94a3b8" stroke-width="2"/>
  <line x1="200" y1="130" x2="600" y2="130" stroke="#94a3b8" stroke-width="2"/>
  <line x1="200" y1="130" x2="200" y2="155" stroke="#94a3b8" stroke-width="1.5"/>
  <line x1="600" y1="130" x2="600" y2="155" stroke="#94a3b8" stroke-width="1.5"/>

  <!-- Step 2a: Pflichten Vermieter -->
  <rect x="60" y="155" width="280" height="55" rx="8" fill="#f0fdf4" stroke="#22c55e" stroke-width="2"/>
  <text x="200" y="178" text-anchor="middle" font-family="'DM Sans',system-ui,sans-serif" font-size="12" font-weight="600" fill="#15803d">Pflichten Vermieter</text>
  <text x="200" y="198" text-anchor="middle" font-family="'DM Sans',system-ui,sans-serif" font-size="11" fill="#64748b">Gebrauchsüberlassung (OR 256)</text>

  <!-- Step 2b: Pflichten Mieter -->
  <rect x="460" y="155" width="280" height="55" rx="8" fill="#f0fdf4" stroke="#22c55e" stroke-width="2"/>
  <text x="600" y="178" text-anchor="middle" font-family="'DM Sans',system-ui,sans-serif" font-size="12" font-weight="600" fill="#15803d">Pflichten Mieter</text>
  <text x="600" y="198" text-anchor="middle" font-family="'DM Sans',system-ui,sans-serif" font-size="11" fill="#64748b">Mietzinszahlung (OR 257)</text>

  <!-- Arrow to Mängel -->
  <line x1="400" y1="130" x2="400" y2="240" stroke="#94a3b8" stroke-width="2"/>
  <polygon points="393,237 407,237 400,250" fill="#94a3b8"/>

  <!-- Step 3: Mängelrecht -->
  <rect x="270" y="250" width="260" height="55" rx="8" fill="#f0fdf4" stroke="#22c55e" stroke-width="2"/>
  <text x="400" y="272" text-anchor="middle" font-family="'DM Sans',system-ui,sans-serif" font-size="12" font-weight="600" fill="#15803d">Mängelrecht (OR 259a–i)</text>
  <text x="400" y="292" text-anchor="middle" font-family="'DM Sans',system-ui,sans-serif" font-size="11" fill="#64748b">Anzeige → Frist → Reduktion/Hinterleg.</text>

  <!-- Arrow to Kündigung -->
  <line x1="400" y1="305" x2="400" y2="335" stroke="#94a3b8" stroke-width="2"/>
  <polygon points="393,332 407,332 400,345" fill="#94a3b8"/>

  <!-- Step 4: Kündigung -->
  <rect x="270" y="345" width="260" height="55" rx="8" fill="#f0fdf4" stroke="#22c55e" stroke-width="2"/>
  <text x="400" y="367" text-anchor="middle" font-family="'DM Sans',system-ui,sans-serif" font-size="12" font-weight="600" fill="#15803d">Kündigung + Erstreckung</text>
  <text x="400" y="387" text-anchor="middle" font-family="'DM Sans',system-ui,sans-serif" font-size="11" fill="#64748b">Form + Fristen (OR 266a ff., 272 ff.)</text>

  <!-- Red numbered circles -->
  <!-- 1: Mietvertrag -->
  <line x1="270" y1="70" x2="240" y2="55" stroke="#ef4444" stroke-width="1" stroke-dasharray="3,3"/>
  <circle cx="228" cy="48" r="14" fill="#ef4444"/>
  <text x="228" y="53" text-anchor="middle" font-family="'DM Sans',system-ui,sans-serif" font-size="12" font-weight="700" fill="#ffffff">1</text>

  <!-- 2: Vermieter -->
  <line x1="60" y1="178" x2="34" y2="162" stroke="#ef4444" stroke-width="1" stroke-dasharray="3,3"/>
  <circle cx="22" cy="155" r="14" fill="#ef4444"/>
  <text x="22" y="160" text-anchor="middle" font-family="'DM Sans',system-ui,sans-serif" font-size="12" font-weight="700" fill="#ffffff">2</text>

  <!-- 3: Mieter -->
  <line x1="740" y1="178" x2="766" y2="162" stroke="#ef4444" stroke-width="1" stroke-dasharray="3,3"/>
  <circle cx="778" cy="155" r="14" fill="#ef4444"/>
  <text x="778" y="160" text-anchor="middle" font-family="'DM Sans',system-ui,sans-serif" font-size="12" font-weight="700" fill="#ffffff">3</text>

  <!-- 4: Mängelrecht -->
  <line x1="270" y1="272" x2="240" y2="265" stroke="#ef4444" stroke-width="1" stroke-dasharray="3,3"/>
  <circle cx="228" cy="262" r="14" fill="#ef4444"/>
  <text x="228" y="267" text-anchor="middle" font-family="'DM Sans',system-ui,sans-serif" font-size="12" font-weight="700" fill="#ffffff">4</text>

  <!-- 5: Kündigung -->
  <line x1="270" y1="368" x2="240" y2="368" stroke="#ef4444" stroke-width="1" stroke-dasharray="3,3"/>
  <circle cx="228" cy="368" r="14" fill="#ef4444"/>
  <text x="228" y="373" text-anchor="middle" font-family="'DM Sans',system-ui,sans-serif" font-size="12" font-weight="700" fill="#ffffff">5</text>
</svg>
