<svg xmlns="http://www.w3.org/2000/svg" viewBox="0 0 800 580" font-family="'DM Sans', system-ui, sans-serif">
  <!-- Weisser Hintergrund für Dark Mode -->
  <rect width="800" height="580" fill="#ffffff"/>

  <!-- Titel -->
  <text x="400" y="32" text-anchor="middle" font-size="17" font-weight="700" fill="#1e293b">Mängelrecht — Vorgehen bei Mängeln (OR 259–259i)</text>

  <!-- Schritt 1: Mangel entdeckt -->
  <rect x="270" y="50" width="260" height="40" rx="20" fill="#73ab2c" stroke="#5a8a22" stroke-width="1.5"/>
  <text x="400" y="75" text-anchor="middle" font-size="12" font-weight="600" fill="#ffffff">Mangel an der Mietsache entdeckt</text>

  <!-- Pfeil -->
  <line x1="400" y1="90" x2="400" y2="112" stroke="#94a3b8" stroke-width="1.5"/>
  <polygon points="396,108 400,116 404,108" fill="#94a3b8"/>

  <!-- Entscheidung: Kleiner Unterhalt? -->
  <polygon points="400,120 540,155 400,190 260,155" fill="#fff8e1" stroke="#f9a825" stroke-width="1.5"/>
  <text x="400" y="152" text-anchor="middle" font-size="10.5" font-weight="600" fill="#5d4037">Gewöhnlicher Unterhalt?</text>
  <text x="400" y="165" text-anchor="middle" font-size="9" fill="#795548">(z.B. Glühbirne, Abfluss)</text>

  <!-- JA-Pfad links -->
  <line x1="260" y1="155" x2="150" y2="155" stroke="#2e7d32" stroke-width="1.5"/>
  <polygon points="154,151 146,155 154,159" fill="#2e7d32"/>
  <text x="210" y="147" font-size="10" font-weight="600" fill="#2e7d32">Ja</text>

  <rect x="30" y="135" width="120" height="40" rx="6" fill="#e8f5e9" stroke="#73ab2c" stroke-width="1"/>
  <text x="90" y="153" text-anchor="middle" font-size="10" font-weight="600" fill="#2e7d32">Mieter behebt</text>
  <text x="90" y="166" text-anchor="middle" font-size="9" fill="#475569">Art. 259 OR</text>

  <!-- NEIN-Pfad nach unten -->
  <line x1="400" y1="190" x2="400" y2="215" stroke="#c62828" stroke-width="1.5"/>
  <polygon points="396,211 400,219 404,211" fill="#c62828"/>
  <text x="415" y="208" font-size="10" font-weight="600" fill="#c62828">Nein</text>

  <!-- Schritt 2: Meldung an Vermieter -->
  <rect x="280" y="220" width="240" height="38" rx="6" fill="#e3f2fd" stroke="#2563eb" stroke-width="1.5"/>
  <text x="400" y="236" text-anchor="middle" font-size="11" font-weight="600" fill="#1565c0">Mangel dem Vermieter melden</text>
  <text x="400" y="250" text-anchor="middle" font-size="9.5" fill="#475569">Schriftlich + Frist setzen</text>

  <!-- Pfeil -->
  <line x1="400" y1="258" x2="400" y2="280" stroke="#94a3b8" stroke-width="1.5"/>
  <polygon points="396,276 400,284 404,276" fill="#94a3b8"/>

  <!-- Entscheidung: Vermieter handelt? -->
  <polygon points="400,288 540,323 400,358 260,323" fill="#fff8e1" stroke="#f9a825" stroke-width="1.5"/>
  <text x="400" y="322" text-anchor="middle" font-size="10.5" font-weight="600" fill="#5d4037">Vermieter behebt</text>
  <text x="400" y="335" text-anchor="middle" font-size="10.5" font-weight="600" fill="#5d4037">den Mangel?</text>

  <!-- JA-Pfad links -->
  <line x1="260" y1="323" x2="150" y2="323" stroke="#2e7d32" stroke-width="1.5"/>
  <polygon points="154,319 146,323 154,327" fill="#2e7d32"/>
  <text x="210" y="315" font-size="10" font-weight="600" fill="#2e7d32">Ja</text>

  <rect x="30" y="303" width="120" height="40" rx="6" fill="#e8f5e9" stroke="#73ab2c" stroke-width="1"/>
  <text x="90" y="321" text-anchor="middle" font-size="10" font-weight="600" fill="#2e7d32">Erledigt ✓</text>
  <text x="90" y="334" text-anchor="middle" font-size="9" fill="#475569">Art. 256 OR</text>

  <!-- NEIN-Pfad nach unten -->
  <line x1="400" y1="358" x2="400" y2="385" stroke="#c62828" stroke-width="1.5"/>
  <polygon points="396,381 400,389 404,381" fill="#c62828"/>
  <text x="415" y="377" font-size="10" font-weight="600" fill="#c62828">Nein</text>

  <!-- Schritt 3: Rechte des Mieters (4 Optionen) -->
  <rect x="190" y="390" width="420" height="32" rx="6" fill="#334155"/>
  <text x="400" y="411" text-anchor="middle" font-size="12" font-weight="600" fill="#ffffff">Rechte des Mieters (Art. 259a–259i OR)</text>

  <!-- 4 Optionen nebeneinander -->
  <!-- Option A: Mängelbeseitigung -->
  <line x1="200" y1="422" x2="200" y2="440" stroke="#94a3b8" stroke-width="1"/>
  <rect x="120" y="440" width="155" height="55" rx="5" fill="#e3f2fd" stroke="#2563eb" stroke-width="1"/>
  <text x="197" y="458" text-anchor="middle" font-size="10" font-weight="600" fill="#1565c0">Mängelbeseitigung</text>
  <text x="197" y="472" text-anchor="middle" font-size="9" fill="#475569">Art. 259b OR</text>
  <text x="197" y="486" text-anchor="middle" font-size="8.5" fill="#64748b">(oder Ersatzvornahme)</text>

  <!-- Option B: Mietzinsreduktion -->
  <line x1="350" y1="422" x2="350" y2="440" stroke="#94a3b8" stroke-width="1"/>
  <rect x="275" y="440" width="150" height="55" rx="5" fill="#fff3e0" stroke="#f57c00" stroke-width="1"/>
  <text x="350" y="458" text-anchor="middle" font-size="10" font-weight="600" fill="#e65100">Mietzinsreduktion</text>
  <text x="350" y="472" text-anchor="middle" font-size="9" fill="#475569">Art. 259d OR</text>
  <text x="350" y="486" text-anchor="middle" font-size="8.5" fill="#64748b">(anteilig zur Störung)</text>

  <!-- Option C: Schadenersatz -->
  <line x1="490" y1="422" x2="490" y2="440" stroke="#94a3b8" stroke-width="1"/>
  <rect x="415" y="440" width="150" height="55" rx="5" fill="#fce4ec" stroke="#c62828" stroke-width="1"/>
  <text x="490" y="458" text-anchor="middle" font-size="10" font-weight="600" fill="#b71c1c">Schadenersatz</text>
  <text x="490" y="472" text-anchor="middle" font-size="9" fill="#475569">Art. 259e OR</text>
  <text x="490" y="486" text-anchor="middle" font-size="8.5" fill="#64748b">(für Schäden an Eigentum)</text>

  <!-- Option D: Hinterlegung -->
  <line x1="630" y1="422" x2="630" y2="440" stroke="#94a3b8" stroke-width="1"/>
  <rect x="555" y="440" width="150" height="55" rx="5" fill="#f3e5f5" stroke="#7b1fa2" stroke-width="1"/>
  <text x="630" y="458" text-anchor="middle" font-size="10" font-weight="600" fill="#6a1b9a">Mietzinshinterlegung</text>
  <text x="630" y="472" text-anchor="middle" font-size="9" fill="#475569">Art. 259g–h OR</text>
  <text x="630" y="486" text-anchor="middle" font-size="8.5" fill="#64748b">(bei amtlicher Stelle)</text>

  <!-- Hinweis unten -->
  <rect x="30" y="515" width="740" height="42" rx="6" fill="#f1f5f9" stroke="#cbd5e1" stroke-width="1"/>
  <text x="400" y="535" text-anchor="middle" font-size="10" fill="#475569">⚠️ Wichtig: Eigenständige Mietzinskürzung ist NICHT erlaubt — nur die offizielle Hinterlegung bei einer amtlichen Stelle schützt den Mieter.</text>
  <text x="400" y="549" text-anchor="middle" font-size="9" fill="#94a3b8">Bei schweren Mängeln: Fristlose Kündigung möglich (Art. 259b lit. a OR)</text>
</svg>