<svg xmlns="http://www.w3.org/2000/svg" viewBox="0 0 800 450" width="800" height="450">
  <rect width="800" height="450" fill="#ffffff" rx="8"/>

  <!-- Title -->
  <text x="400" y="32" text-anchor="middle" font-family="'DM Sans',system-ui,sans-serif" font-size="16" font-weight="700" fill="#1e293b">BIP nach Verwendungsseite — Beschrifte die Komponenten</text>

  <!-- Kreisdiagramm Mittelpunkt: 280,240, Radius: 160 -->
  <!-- Segment 1: Privater Konsum (C) ~52% = 187° -->
  <path d="M280,240 L280,80 A160,160 0 0,1 452,173 Z" fill="#dbeafe" stroke="#ffffff" stroke-width="2"/>
  <!-- Segment 2: Investitionen (I) ~25% = 90° -->
  <path d="M280,240 L452,173 A160,160 0 0,1 380,392 Z" fill="#dcfce7" stroke="#ffffff" stroke-width="2"/>
  <!-- Segment 3: Staatskonsum (G) ~12% = 43° -->
  <path d="M280,240 L380,392 A160,160 0 0,1 168,352 Z" fill="#fef9c3" stroke="#ffffff" stroke-width="2"/>
  <!-- Segment 4: Nettoexporte (NX) ~11% = 40° -->
  <path d="M280,240 L168,352 A160,160 0 0,1 280,80 Z" fill="#fee2e2" stroke="#ffffff" stroke-width="2"/>

  <!-- Segment-Prozente (klein, zentriert in Segment) -->
  <text x="320" y="185" text-anchor="middle" font-family="'DM Sans',system-ui,sans-serif" font-size="13" font-weight="600" fill="#1e293b">~52%</text>
  <text x="390" y="300" text-anchor="middle" font-family="'DM Sans',system-ui,sans-serif" font-size="13" font-weight="600" fill="#1e293b">~25%</text>
  <text x="255" y="355" text-anchor="middle" font-family="'DM Sans',system-ui,sans-serif" font-size="13" font-weight="600" fill="#1e293b">~12%</text>
  <text x="175" y="255" text-anchor="middle" font-family="'DM Sans',system-ui,sans-serif" font-size="13" font-weight="600" fill="#1e293b">~11%</text>

  <!-- Zeiger-Linien + rote nummerierte Kreise -->

  <!-- 1: Privater Konsum oben rechts -->

  <!-- 2: Staatskonsum unten links -->

  <!-- 3: Investitionen rechts -->

  <!-- 4: Nettoexporte links -->

  <!-- 5: Formel oben (Titel-Bereich) -->

  <!-- Rechte Seite: Beschriftungslegende-Bereich (Platzhalter-Boxen) -->
  <rect x="590" y="80" width="185" height="290" rx="6" fill="#f8fafc" stroke="#e2e8f0" stroke-width="1.5"/>
  <text x="682" y="103" text-anchor="middle" font-family="'DM Sans',system-ui,sans-serif" font-size="12" font-weight="700" fill="#64748b">Legende</text>
  <rect x="605" y="115" width="155" height="52" rx="4" fill="#dbeafe" stroke="#93c5fd" stroke-width="1"/>
  <text x="682" y="137" text-anchor="middle" font-family="'DM Sans',system-ui,sans-serif" font-size="10" fill="#94a3b8">① ?</text>
  <rect x="605" y="177" width="155" height="52" rx="4" fill="#fef9c3" stroke="#fde047" stroke-width="1"/>
  <text x="682" y="199" text-anchor="middle" font-family="'DM Sans',system-ui,sans-serif" font-size="10" fill="#94a3b8">② ?</text>
  <rect x="605" y="239" width="155" height="52" rx="4" fill="#dcfce7" stroke="#86efac" stroke-width="1"/>
  <text x="682" y="261" text-anchor="middle" font-family="'DM Sans',system-ui,sans-serif" font-size="10" fill="#94a3b8">③ ?</text>
  <rect x="605" y="301" width="155" height="52" rx="4" fill="#fee2e2" stroke="#fca5a5" stroke-width="1"/>
  <text x="682" y="323" text-anchor="middle" font-family="'DM Sans',system-ui,sans-serif" font-size="10" fill="#94a3b8">④ ?</text>

  <!-- Formel-Box oben -->
  <rect x="590" y="385" width="185" height="45" rx="6" fill="#f1f5f9" stroke="#cbd5e1" stroke-width="1.5"/>
  <text x="682" y="414" text-anchor="middle" font-family="'DM Sans',system-ui,sans-serif" font-size="13" font-weight="700" fill="#94a3b8">⑤ Y = ?</text>

  <!-- Hinweis -->
  <text x="400" y="445" text-anchor="middle" font-family="'DM Sans',system-ui,sans-serif" font-size="11" fill="#94a3b8">Weise die nummerierten Kreise den richtigen Bezeichnungen zu</text>
</svg>
