<svg xmlns="http://www.w3.org/2000/svg" viewBox="0 0 800 450" width="800" height="450">
  <rect width="800" height="450" fill="#ffffff" rx="8"/>

  <!-- Title -->
  <text x="400" y="32" text-anchor="middle" font-family="'DM Sans',system-ui,sans-serif" font-size="16" font-weight="700" fill="#1e293b">Instanzenzug — Beschrifte die Treppenstufen</text>

  <!-- Staircase visual -->
  <!-- Step 1 (bottom-left): 1. Instanz -->
  <rect x="40" y="335" width="200" height="75" rx="6" fill="#f0fdf4" stroke="#22c55e" stroke-width="2"/>
  <text x="140" y="365" text-anchor="middle" font-family="'DM Sans',system-ui,sans-serif" font-size="12" fill="#1e293b" font-weight="600">Sachentscheid</text>
  <text x="140" y="383" text-anchor="middle" font-family="'DM Sans',system-ui,sans-serif" font-size="11" fill="#64748b">Tatsachen + Rechtsfragen</text>
  <text x="140" y="400" text-anchor="middle" font-family="'DM Sans',system-ui,sans-serif" font-size="10" fill="#94a3b8">Kanton (ev. mehrere Instanzen)</text>

  <!-- Stair riser 1→2 -->
  <line x1="240" y1="335" x2="240" y2="245" stroke="#22c55e" stroke-width="2"/>
  <line x1="240" y1="245" x2="330" y2="245" stroke="#22c55e" stroke-width="2"/>
  <polygon points="327,238 327,252 340,245" fill="#22c55e"/>

  <!-- Step 2 (middle): 2. Instanz -->
  <rect x="300" y="245" width="200" height="75" rx="6" fill="#f0fdf4" stroke="#22c55e" stroke-width="2"/>
  <text x="400" y="275" text-anchor="middle" font-family="'DM Sans',system-ui,sans-serif" font-size="12" fill="#1e293b" font-weight="600">Rechtsmittelentscheid</text>
  <text x="400" y="293" text-anchor="middle" font-family="'DM Sans',system-ui,sans-serif" font-size="11" fill="#64748b">Überprüfung 1. Instanz</text>
  <text x="400" y="310" text-anchor="middle" font-family="'DM Sans',system-ui,sans-serif" font-size="10" fill="#94a3b8">Berufung / Beschwerde</text>

  <!-- Stair riser 2→3 -->
  <line x1="500" y1="245" x2="500" y2="155" stroke="#22c55e" stroke-width="2"/>
  <line x1="500" y1="155" x2="590" y2="155" stroke="#22c55e" stroke-width="2"/>
  <polygon points="587,148 587,162 600,155" fill="#22c55e"/>

  <!-- Step 3 (top-right): Bundesgericht -->
  <rect x="560" y="100" width="200" height="75" rx="6" fill="#dcfce7" stroke="#15803d" stroke-width="2.5"/>
  <text x="660" y="130" text-anchor="middle" font-family="'DM Sans',system-ui,sans-serif" font-size="12" fill="#15803d" font-weight="700">Letzte Instanz CH</text>
  <text x="660" y="148" text-anchor="middle" font-family="'DM Sans',system-ui,sans-serif" font-size="11" fill="#64748b">Primär Rechtsfragen</text>
  <text x="660" y="165" text-anchor="middle" font-family="'DM Sans',system-ui,sans-serif" font-size="10" fill="#94a3b8">Lausanne (BGer)</text>

  <!-- Red numbered circles with dashed lines -->
  <!-- 1: 1. Instanz -->
  <line x1="40" y1="360" x2="14" y2="348" stroke="#ef4444" stroke-width="1" stroke-dasharray="3,3"/>
  <circle cx="14" cy="338" r="14" fill="#ef4444"/>
  <text x="14" y="343" text-anchor="middle" font-family="'DM Sans',system-ui,sans-serif" font-size="12" font-weight="700" fill="#ffffff">1</text>

  <!-- 2: Berufung/Beschwerde label -->
  <line x1="200" y1="290" x2="175" y2="305" stroke="#ef4444" stroke-width="1" stroke-dasharray="3,3"/>
  <circle cx="163" cy="312" r="14" fill="#ef4444"/>
  <text x="163" y="317" text-anchor="middle" font-family="'DM Sans',system-ui,sans-serif" font-size="12" font-weight="700" fill="#ffffff">2</text>

  <!-- 3: 2. Instanz -->
  <line x1="300" y1="270" x2="268" y2="258" stroke="#ef4444" stroke-width="1" stroke-dasharray="3,3"/>
  <circle cx="256" cy="252" r="14" fill="#ef4444"/>
  <text x="256" y="257" text-anchor="middle" font-family="'DM Sans',system-ui,sans-serif" font-size="12" font-weight="700" fill="#ffffff">3</text>

  <!-- 4: Beschwerde label -->
  <line x1="460" y1="200" x2="435" y2="215" stroke="#ef4444" stroke-width="1" stroke-dasharray="3,3"/>
  <circle cx="423" cy="222" r="14" fill="#ef4444"/>
  <text x="423" y="227" text-anchor="middle" font-family="'DM Sans',system-ui,sans-serif" font-size="12" font-weight="700" fill="#ffffff">4</text>

  <!-- 5: Bundesgericht -->
  <line x1="560" y1="130" x2="534" y2="122" stroke="#ef4444" stroke-width="1" stroke-dasharray="3,3"/>
  <circle cx="522" cy="118" r="14" fill="#ef4444"/>
  <text x="522" y="123" text-anchor="middle" font-family="'DM Sans',system-ui,sans-serif" font-size="12" font-weight="700" fill="#ffffff">5</text>

  <!-- Floor line -->
  <line x1="40" y1="410" x2="760" y2="410" stroke="#e2e8f0" stroke-width="1.5"/>
  <text x="400" y="435" text-anchor="middle" font-family="'DM Sans',system-ui,sans-serif" font-size="11" fill="#94a3b8">Schweizer Instanzenzug: 1. Instanz → 2. Instanz → Bundesgericht (letzte innerstaatliche Instanz)</text>
</svg>
