<svg xmlns="http://www.w3.org/2000/svg" viewBox="0 0 460 340" width="460" height="340"><rect width="460" height="340" fill="white" rx="8"/><line x1="55" y1="25" x2="55" y2="295" stroke="#334155" stroke-width="2"/><line x1="55" y1="295" x2="430" y2="295" stroke="#334155" stroke-width="2"/><text x="242" y="335" text-anchor="middle" fill="#334155" font-size="13" font-family="DM Sans,system-ui,sans-serif">Menge (Q)</text><text x="16" y="160" text-anchor="middle" fill="#334155" font-size="13" font-family="DM Sans,system-ui,sans-serif" transform="rotate(-90,16,160)">Preis (P)</text><defs><marker id="arrowR" markerWidth="8" markerHeight="6" refX="8" refY="3" orient="auto"><path d="M0,0 L8,3 L0,6" fill="#e74c3c"/></marker></defs><line x1="85" y1="40" x2="370" y2="265" stroke="#e74c3c" stroke-width="1.5" stroke-dasharray="6,4" opacity="0.5"/><text x="375" y="260" fill="#e74c3c" font-size="13" font-weight="600" font-family="DM Sans,system-ui,sans-serif" opacity="0.5">N₁</text><line x1="140" y1="40" x2="425" y2="265" stroke="#e74c3c" stroke-width="2.5"/><text x="430" y="260" fill="#e74c3c" font-size="14" font-weight="600" font-family="DM Sans,system-ui,sans-serif">N₂</text><line x1="236.8" y1="149.75" x2="261.1" y2="149.75" stroke="#e74c3c" stroke-width="2" marker-end="url(#arrowR)"/><line x1="85" y1="265" x2="410" y2="40" stroke="#2563eb" stroke-width="2.5"/><text x="375" y="55" fill="#2563eb" font-size="14" font-weight="600" font-family="DM Sans,system-ui,sans-serif">A</text><circle cx="236.8" cy="159.9" r="4" fill="#334155" opacity="0.4"/><text x="224.8" y="151.9" fill="#334155" font-size="11" font-weight="600" font-family="DM Sans,system-ui,sans-serif" opacity="0.5">E₁</text><circle cx="266.1" cy="139.6" r="5" fill="#334155"/><text x="276.1" y="131.6" fill="#334155" font-size="12" font-weight="600" font-family="DM Sans,system-ui,sans-serif">E₂</text><line x1="266.1" y1="139.6" x2="266.1" y2="295" stroke="#334155" stroke-width="1" stroke-dasharray="5,4"/><line x1="266.1" y1="139.6" x2="55" y2="139.6" stroke="#334155" stroke-width="1" stroke-dasharray="5,4"/><line x1="236.8" y1="159.9" x2="55" y2="159.9" stroke="#334155" stroke-width="1" stroke-dasharray="4,3" opacity="0.4"/><text x="47" y="163.9" fill="#334155" font-size="11" font-weight="600" font-family="DM Sans,system-ui,sans-serif" text-anchor="end" opacity="0.5">P₁</text><text x="47" y="143.6" fill="#334155" font-size="12" font-weight="600" font-family="DM Sans,system-ui,sans-serif" text-anchor="end">P₂</text></svg>