<svg xmlns="http://www.w3.org/2000/svg" viewBox="0 0 460 340" width="460" height="340"><rect width="460" height="340" fill="white" rx="8"/><line x1="55" y1="25" x2="55" y2="295" stroke="#334155" stroke-width="2"/><line x1="55" y1="295" x2="430" y2="295" stroke="#334155" stroke-width="2"/><text x="242" y="335" text-anchor="middle" fill="#334155" font-size="13" font-family="DM Sans,system-ui,sans-serif">Menge (Q)</text><text x="16" y="160" text-anchor="middle" fill="#334155" font-size="13" font-family="DM Sans,system-ui,sans-serif" transform="rotate(-90,16,160)">Preis (P)</text><polygon points="201.3,120.5 247.5,152.5 201.3,184.5" fill="#f59e0b" opacity="0.3"/><rect x="85" y="120.5" width="116.30000000000001" height="64.0" fill="#8b5cf6" opacity="0.12" stroke="#8b5cf6" stroke-width="1" stroke-dasharray="4,3"/><text x="143.15" y="156.5" fill="#6d28d9" font-size="11" font-weight="600" font-family="DM Sans,system-ui,sans-serif" text-anchor="middle">Steuer</text><line x1="85" y1="40" x2="410" y2="265" stroke="#e74c3c" stroke-width="2.5"/><text x="415" y="260" fill="#e74c3c" font-size="14" font-weight="600" font-family="DM Sans,system-ui,sans-serif">N</text><line x1="85" y1="265" x2="410" y2="40" stroke="#2563eb" stroke-width="2.5"/><text x="415" y="55" fill="#2563eb" font-size="14" font-weight="600" font-family="DM Sans,system-ui,sans-serif">A</text><circle cx="247.5" cy="152.5" r="4" fill="#334155" opacity="0.3"/><circle cx="201.3" cy="120.5" r="4" fill="#e74c3c"/><circle cx="201.3" cy="184.5" r="4" fill="#2563eb"/><line x1="213.3" y1="120.5" x2="213.3" y2="184.5" stroke="#7c3aed" stroke-width="2"/><line x1="209.3" y1="120.5" x2="217.3" y2="120.5" stroke="#7c3aed" stroke-width="2"/><line x1="209.3" y1="184.5" x2="217.3" y2="184.5" stroke="#7c3aed" stroke-width="2"/><text x="223.3" y="156.5" fill="#7c3aed" font-size="11" font-weight="600" font-family="DM Sans,system-ui,sans-serif">t</text><line x1="55" y1="120.5" x2="201.3" y2="120.5" stroke="#334155" stroke-width="1" stroke-dasharray="4,3"/><line x1="55" y1="184.5" x2="201.3" y2="184.5" stroke="#334155" stroke-width="1" stroke-dasharray="4,3"/><line x1="201.3" y1="184.5" x2="201.3" y2="295" stroke="#334155" stroke-width="1" stroke-dasharray="4,3"/><text x="47" y="124.5" fill="#e74c3c" font-size="11" font-weight="600" font-family="DM Sans,system-ui,sans-serif" text-anchor="end">P_K</text><text x="47" y="188.5" fill="#2563eb" font-size="11" font-weight="600" font-family="DM Sans,system-ui,sans-serif" text-anchor="end">P_P</text><text x="201.3" y="310" fill="#334155" font-size="11" font-weight="600" font-family="DM Sans,system-ui,sans-serif" text-anchor="middle">Q_t</text></svg>