<svg xmlns="http://www.w3.org/2000/svg" viewBox="0 0 800 500" font-family="system-ui, -apple-system, sans-serif">
  <rect width="800" height="500" fill="#f5f5f5"/>
  <line x1="100" y1="420" x2="720" y2="420" stroke="#666" stroke-width="2"/>
  <line x1="100" y1="420" x2="100" y2="60" stroke="#666" stroke-width="2"/>
  <polygon points="720,420 710,414 710,426" fill="#666"/>
  <polygon points="100,60 94,70 106,70" fill="#666"/>
  <text x="400" y="460" text-anchor="middle" font-size="16" fill="#666">Arbeit</text>
  <text x="40" y="240" text-anchor="middle" font-size="16" fill="#666" transform="rotate(-90, 40, 240)">Lohn</text>
  <line x1="160" y1="380" x2="620" y2="100" stroke="#999" stroke-width="2.5"/>
  <line x1="160" y1="100" x2="620" y2="380" stroke="#999" stroke-width="2.5"/>
  <line x1="390" y1="240" x2="390" y2="420" stroke="#d4d4d4" stroke-width="1.5" stroke-dasharray="6 3"/>
  <line x1="100" y1="240" x2="390" y2="240" stroke="#d4d4d4" stroke-width="1.5" stroke-dasharray="6 3"/>
  <circle cx="540" cy="150" r="16" fill="white" stroke="#666" stroke-width="2"/>
  <text x="540" y="156" text-anchor="middle" font-size="14" font-weight="bold" fill="#666">1</text>
  <circle cx="540" cy="330" r="16" fill="white" stroke="#666" stroke-width="2"/>
  <text x="540" y="336" text-anchor="middle" font-size="14" font-weight="bold" fill="#666">2</text>
  <circle cx="390" cy="240" r="16" fill="white" stroke="#666" stroke-width="2"/>
  <text x="390" y="246" text-anchor="middle" font-size="14" font-weight="bold" fill="#666">3</text>
  <circle cx="100" cy="240" r="16" fill="white" stroke="#666" stroke-width="2"/>
  <text x="100" y="246" text-anchor="middle" font-size="14" font-weight="bold" fill="#666">4</text>
  <circle cx="390" cy="420" r="16" fill="white" stroke="#666" stroke-width="2"/>
  <text x="390" y="426" text-anchor="middle" font-size="14" font-weight="bold" fill="#666">5</text>
  <circle cx="280" cy="160" r="16" fill="white" stroke="#666" stroke-width="2"/>
  <text x="280" y="166" text-anchor="middle" font-size="14" font-weight="bold" fill="#666">6</text>
</svg>
