<svg xmlns="http://www.w3.org/2000/svg" viewBox="0 0 800 500" font-family="system-ui, -apple-system, sans-serif">
  <rect width="800" height="500" fill="#f5f5f5"/>
  <rect x="40" y="20" width="230" height="460" rx="8" fill="white" stroke="#d4d4d4" stroke-width="2" stroke-dasharray="6 3"/>
  <text x="155" y="55" text-anchor="middle" font-size="22" font-weight="bold" fill="#666">A</text>
  <line x1="60" y1="70" x2="250" y2="70" stroke="#e8e8e8" stroke-width="1"/>
  <rect x="60" y="90" width="190" height="40" rx="4" fill="#f5f5f5" stroke="#d4d4d4" stroke-width="1" stroke-dasharray="6 3"/>
  <rect x="60" y="145" width="190" height="40" rx="4" fill="#f5f5f5" stroke="#d4d4d4" stroke-width="1" stroke-dasharray="6 3"/>
  <rect x="60" y="200" width="190" height="40" rx="4" fill="#f5f5f5" stroke="#d4d4d4" stroke-width="1" stroke-dasharray="6 3"/>
  <rect x="60" y="255" width="190" height="40" rx="4" fill="#f5f5f5" stroke="#d4d4d4" stroke-width="1" stroke-dasharray="6 3"/>
  <rect x="285" y="20" width="230" height="460" rx="8" fill="white" stroke="#d4d4d4" stroke-width="2" stroke-dasharray="6 3"/>
  <text x="400" y="55" text-anchor="middle" font-size="22" font-weight="bold" fill="#666">B</text>
  <line x1="305" y1="70" x2="495" y2="70" stroke="#e8e8e8" stroke-width="1"/>
  <rect x="305" y="90" width="190" height="40" rx="4" fill="#f5f5f5" stroke="#d4d4d4" stroke-width="1" stroke-dasharray="6 3"/>
  <rect x="305" y="145" width="190" height="40" rx="4" fill="#f5f5f5" stroke="#d4d4d4" stroke-width="1" stroke-dasharray="6 3"/>
  <rect x="305" y="200" width="190" height="40" rx="4" fill="#f5f5f5" stroke="#d4d4d4" stroke-width="1" stroke-dasharray="6 3"/>
  <rect x="305" y="255" width="190" height="40" rx="4" fill="#f5f5f5" stroke="#d4d4d4" stroke-width="1" stroke-dasharray="6 3"/>
  <rect x="530" y="20" width="230" height="460" rx="8" fill="white" stroke="#d4d4d4" stroke-width="2" stroke-dasharray="6 3"/>
  <text x="645" y="55" text-anchor="middle" font-size="22" font-weight="bold" fill="#666">C</text>
  <line x1="550" y1="70" x2="740" y2="70" stroke="#e8e8e8" stroke-width="1"/>
  <rect x="550" y="90" width="190" height="40" rx="4" fill="#f5f5f5" stroke="#d4d4d4" stroke-width="1" stroke-dasharray="6 3"/>
  <rect x="550" y="145" width="190" height="40" rx="4" fill="#f5f5f5" stroke="#d4d4d4" stroke-width="1" stroke-dasharray="6 3"/>
  <rect x="550" y="200" width="190" height="40" rx="4" fill="#f5f5f5" stroke="#d4d4d4" stroke-width="1" stroke-dasharray="6 3"/>
  <rect x="550" y="255" width="190" height="40" rx="4" fill="#f5f5f5" stroke="#d4d4d4" stroke-width="1" stroke-dasharray="6 3"/>
</svg>
