<svg xmlns="http://www.w3.org/2000/svg" viewBox="0 0 800 450" width="800" height="450">
  <rect width="800" height="450" fill="#ffffff" rx="8"/>

  <!-- Title -->
  <text x="400" y="32" text-anchor="middle" font-family="'DM Sans',system-ui,sans-serif" font-size="16" font-weight="700" fill="#1e293b">Konjunkturzyklus — Beschrifte die markierten Stellen</text>

  <!-- Axes -->
  <line x1="80" y1="380" x2="740" y2="380" stroke="#94a3b8" stroke-width="1.5"/>
  <line x1="80" y1="60" x2="80" y2="380" stroke="#94a3b8" stroke-width="1.5"/>
  <polygon points="740,375 740,385 755,380" fill="#94a3b8"/>
  <polygon points="75,60 85,60 80,45" fill="#94a3b8"/>

  <!-- Axis labels -->
  <text x="400" y="420" text-anchor="middle" font-family="'DM Sans',system-ui,sans-serif" font-size="13" fill="#64748b">Zeit</text>
  <text x="30" y="220" text-anchor="middle" font-family="'DM Sans',system-ui,sans-serif" font-size="13" fill="#64748b" transform="rotate(-90,30,220)">Reales BIP</text>

  <!-- Trend line -->
  <line x1="100" y1="330" x2="720" y2="150" stroke="#94a3b8" stroke-width="2" stroke-dasharray="8,5"/>

  <!-- Konjunkturkurve -->
  <path d="M100,330 C140,330 160,350 200,310 C240,270 260,210 300,190 C340,170 350,180 380,220 C410,260 430,310 460,300 C490,280 510,240 540,200 C570,160 590,140 620,165 C650,190 670,210 710,195"
        stroke="#2563eb" stroke-width="3" fill="none"/>

  <!-- Beschriftungspunkte (nummeriert, mit Linien zur Kurve) -->

  <!-- 1: Trend-Linie (rechts oben) -->

  <!-- 2: Aufschwung (links, steigende Phase) -->

  <!-- 3: Boom (Hochpunkt, nach oben) -->

  <!-- 4: Abschwung (rechts, fallende Phase) -->

  <!-- 5: Rezession / Talsohle (unten rechts) -->

  <!-- Legend -->
  <line x1="100" y1="65" x2="130" y2="65" stroke="#2563eb" stroke-width="3"/>
  <text x="137" y="69" font-family="'DM Sans',system-ui,sans-serif" font-size="11" fill="#1e293b">Tatsächliches BIP</text>
</svg>
