<svg xmlns="http://www.w3.org/2000/svg" viewBox="0 0 800 420" width="800" height="420">
  <rect width="800" height="420" fill="#ffffff" rx="8"/>
  <text x="400" y="32" text-anchor="middle" font-family="'DM Sans',system-ui,sans-serif" font-size="16" font-weight="700" fill="#1e293b">Laffer-Kurve — Klicke auf den optimalen Steuersatz</text>

  <!-- Achsen -->
  <line x1="80" y1="360" x2="740" y2="360" stroke="#94a3b8" stroke-width="1.5"/>
  <line x1="80" y1="60" x2="80" y2="360" stroke="#94a3b8" stroke-width="1.5"/>
  <polygon points="740,355 740,365 755,360" fill="#94a3b8"/>
  <polygon points="75,60 85,60 80,45" fill="#94a3b8"/>

  <!-- Achsenbeschriftungen -->
  <text x="400" y="395" text-anchor="middle" font-family="'DM Sans',system-ui,sans-serif" font-size="13" fill="#64748b">Steuersatz (%)</text>
  <text x="30" y="210" text-anchor="middle" font-family="'DM Sans',system-ui,sans-serif" font-size="13" fill="#64748b" transform="rotate(-90,30,210)">Steuereinnahmen</text>

  <!-- Steuersatz-Markierungen -->
  <text x="80" y="378" text-anchor="middle" font-family="'DM Sans',system-ui,sans-serif" font-size="11" fill="#64748b">0%</text>
  <text x="245" y="378" text-anchor="middle" font-family="'DM Sans',system-ui,sans-serif" font-size="11" fill="#64748b">25%</text>
  <text x="410" y="378" text-anchor="middle" font-family="'DM Sans',system-ui,sans-serif" font-size="11" fill="#64748b">50%</text>
  <text x="575" y="378" text-anchor="middle" font-family="'DM Sans',system-ui,sans-serif" font-size="11" fill="#64748b">75%</text>
  <text x="740" y="378" text-anchor="middle" font-family="'DM Sans',system-ui,sans-serif" font-size="11" fill="#64748b">100%</text>

  <!-- Laffer-Kurve (umgekehrte Parabel) -->
  <path d="M80,360 C160,360 200,200 300,120 C370,70 430,70 500,120 C600,200 640,360 740,360"
        stroke="#2563eb" stroke-width="3" fill="none"/>

  <!-- Marker A: Optimum (Scheitelpunkt) -->
  <circle cx="400" cy="90" r="16" fill="#e2e8f0" stroke="#475569" stroke-width="1.5"/>
  <text x="400" y="95" text-anchor="middle" font-family="'DM Sans',system-ui,sans-serif" font-size="13" font-weight="700" fill="#1e293b">A</text>

  <!-- Marker B: Tiefer Steuersatz -->
  <circle cx="200" cy="230" r="16" fill="#e2e8f0" stroke="#475569" stroke-width="1.5"/>
  <text x="200" y="235" text-anchor="middle" font-family="'DM Sans',system-ui,sans-serif" font-size="13" font-weight="700" fill="#1e293b">B</text>

  <!-- Marker C: Hoher Steuersatz -->
  <circle cx="600" cy="230" r="16" fill="#e2e8f0" stroke="#475569" stroke-width="1.5"/>
  <text x="600" y="235" text-anchor="middle" font-family="'DM Sans',system-ui,sans-serif" font-size="13" font-weight="700" fill="#1e293b">C</text>

  <!-- Marker D: 100% — etwas höher und links, weg vom Achsen-Label -->
  <circle cx="710" cy="330" r="16" fill="#e2e8f0" stroke="#475569" stroke-width="1.5"/>
  <text x="710" y="335" text-anchor="middle" font-family="'DM Sans',system-ui,sans-serif" font-size="13" font-weight="700" fill="#1e293b">D</text>

  <!-- Legende -->
  <line x1="100" y1="80" x2="130" y2="80" stroke="#2563eb" stroke-width="3"/>
  <text x="137" y="84" font-family="'DM Sans',system-ui,sans-serif" font-size="11" fill="#1e293b">Steuereinnahmen in Abhängigkeit des Steuersatzes</text>
</svg>