<svg xmlns="http://www.w3.org/2000/svg" viewBox="0 0 800 450" width="800" height="450">
  <rect width="800" height="450" fill="#ffffff" rx="8"/>

  <!-- Title -->
  <text x="400" y="32" text-anchor="middle" font-family="'DM Sans',system-ui,sans-serif" font-size="16" font-weight="700" fill="#1e293b">Drei-Ebenen-Modell des Wirtschaftswachstums — Beschrifte die Ebenen</text>

  <!-- Ebene 3 (fundamental / aussen / unten) -->
  <rect x="60" y="270" width="500" height="130" rx="8" fill="#fff7ed" stroke="#fdba74" stroke-width="2"/>
  <text x="310" y="295" text-anchor="middle" font-family="'DM Sans',system-ui,sans-serif" font-size="13" font-weight="700" fill="#ea580c">Ebene 3 — ?</text>
  <text x="310" y="318" text-anchor="middle" font-family="'DM Sans',system-ui,sans-serif" font-size="11" fill="#94a3b8">?</text>
  <!-- Inhalt-Chips -->
  <rect x="85" y="330" width="120" height="28" rx="14" fill="#fed7aa" stroke="#fdba74" stroke-width="1"/>
  <text x="145" y="348" text-anchor="middle" font-family="'DM Sans',system-ui,sans-serif" font-size="10" fill="#c2410c">?</text>
  <rect x="220" y="330" width="100" height="28" rx="14" fill="#fed7aa" stroke="#fdba74" stroke-width="1"/>
  <text x="270" y="348" text-anchor="middle" font-family="'DM Sans',system-ui,sans-serif" font-size="10" fill="#c2410c">?</text>
  <rect x="335" y="330" width="90" height="28" rx="14" fill="#fed7aa" stroke="#fdba74" stroke-width="1"/>
  <text x="380" y="348" text-anchor="middle" font-family="'DM Sans',system-ui,sans-serif" font-size="10" fill="#c2410c">?</text>
  <rect x="440" y="330" width="100" height="28" rx="14" fill="#fed7aa" stroke="#fdba74" stroke-width="1"/>
  <text x="490" y="348" text-anchor="middle" font-family="'DM Sans',system-ui,sans-serif" font-size="10" fill="#c2410c">?</text>
  <text x="310" y="385" text-anchor="middle" font-family="'DM Sans',system-ui,sans-serif" font-size="10" fill="#94a3b8">?</text>

  <!-- Ebene 2 (tiefer / mitte) -->
  <rect x="120" y="155" width="380" height="105" rx="8" fill="#eff6ff" stroke="#93c5fd" stroke-width="2"/>
  <text x="310" y="178" text-anchor="middle" font-family="'DM Sans',system-ui,sans-serif" font-size="13" font-weight="700" fill="#2563eb">Ebene 2 — ?</text>
  <text x="310" y="200" text-anchor="middle" font-family="'DM Sans',system-ui,sans-serif" font-size="11" fill="#94a3b8">?</text>
  <!-- Inhalt-Chips -->
  <rect x="140" y="210" width="95" height="28" rx="14" fill="#bfdbfe" stroke="#93c5fd" stroke-width="1"/>
  <text x="187" y="228" text-anchor="middle" font-family="'DM Sans',system-ui,sans-serif" font-size="10" fill="#1d4ed8">?</text>
  <rect x="250" y="210" width="80" height="28" rx="14" fill="#bfdbfe" stroke="#93c5fd" stroke-width="1"/>
  <text x="290" y="228" text-anchor="middle" font-family="'DM Sans',system-ui,sans-serif" font-size="10" fill="#1d4ed8">?</text>
  <rect x="345" y="210" width="105" height="28" rx="14" fill="#bfdbfe" stroke="#93c5fd" stroke-width="1"/>
  <text x="397" y="228" text-anchor="middle" font-family="'DM Sans',system-ui,sans-serif" font-size="10" fill="#1d4ed8">?</text>

  <!-- Ebene 1 (unmittelbar / innen / oben) -->
  <rect x="185" y="58" width="250" height="90" rx="8" fill="#f0fdf4" stroke="#86efac" stroke-width="2"/>
  <text x="310" y="80" text-anchor="middle" font-family="'DM Sans',system-ui,sans-serif" font-size="13" font-weight="700" fill="#16a34a">Ebene 1 — ?</text>
  <text x="310" y="100" text-anchor="middle" font-family="'DM Sans',system-ui,sans-serif" font-size="11" fill="#94a3b8">?</text>
  <!-- Inhalt-Chips -->
  <rect x="205" y="108" width="80" height="28" rx="14" fill="#bbf7d0" stroke="#86efac" stroke-width="1"/>
  <text x="245" y="126" text-anchor="middle" font-family="'DM Sans',system-ui,sans-serif" font-size="10" fill="#15803d">?</text>
  <rect x="300" y="108" width="80" height="28" rx="14" fill="#bbf7d0" stroke="#86efac" stroke-width="1"/>
  <text x="340" y="126" text-anchor="middle" font-family="'DM Sans',system-ui,sans-serif" font-size="10" fill="#15803d">?</text>

  <!-- Verbindungspfeile -->
  <line x1="310" y1="148" x2="310" y2="160" stroke="#94a3b8" stroke-width="1.5"/>
  <polygon points="305,158 315,158 310,168" fill="#94a3b8"/>
  <line x1="310" y1="260" x2="310" y2="272" stroke="#94a3b8" stroke-width="1.5"/>
  <polygon points="305,270 315,270 310,280" fill="#94a3b8"/>

  <!-- Nummerierte rote Kreise -->
  <!-- 1: Ebene 1 Label -->

  <!-- 2: Arbeit und Kapital -->

  <!-- 3: Ebene 2 Label -->

  <!-- 4: Technologie, Bildung, Infrastruktur -->

  <!-- 5: Ebene 3 Label -->

  <!-- 6: Institutionen, Geographie, Kultur -->

  <!-- Hinweis -->
  <text x="400" y="444" text-anchor="middle" font-family="'DM Sans',system-ui,sans-serif" font-size="11" fill="#94a3b8">Weise die nummerierten Kreise den richtigen Beschriftungen zu</text>
</svg>
