<svg xmlns="http://www.w3.org/2000/svg" viewBox="0 0 800 500" font-family="system-ui, -apple-system, sans-serif">
  <rect width="800" height="500" fill="#fafafa"/>
  <text x="400" y="35" text-anchor="middle" font-size="16" fill="#666" font-weight="600">Bereiche des Arbeitsrechts</text>
  <rect x="50" y="60" width="700" height="420" rx="8" fill="none" stroke="#d4d4d4" stroke-width="1.5"/>
  <rect x="80" y="90" width="300" height="150" rx="6" fill="#f5f5f5" stroke="#d4d4d4" stroke-width="1.5"/>
  <circle cx="100" cy="110" r="14" fill="#e8e8e8" stroke="#999" stroke-width="1.5"/>
  <text x="100" y="115" text-anchor="middle" font-size="13" fill="#666" font-weight="600">1</text>
  <rect x="420" y="90" width="300" height="150" rx="6" fill="#f5f5f5" stroke="#d4d4d4" stroke-width="1.5"/>
  <circle cx="440" cy="110" r="14" fill="#e8e8e8" stroke="#999" stroke-width="1.5"/>
  <text x="440" y="115" text-anchor="middle" font-size="13" fill="#666" font-weight="600">2</text>
  <rect x="80" y="280" width="190" height="170" rx="6" fill="#f5f5f5" stroke="#d4d4d4" stroke-width="1.5"/>
  <circle cx="100" cy="300" r="14" fill="#e8e8e8" stroke="#999" stroke-width="1.5"/>
  <text x="100" y="305" text-anchor="middle" font-size="13" fill="#666" font-weight="600">3</text>
  <rect x="305" y="280" width="190" height="170" rx="6" fill="#f5f5f5" stroke="#d4d4d4" stroke-width="1.5"/>
  <circle cx="325" cy="300" r="14" fill="#e8e8e8" stroke="#999" stroke-width="1.5"/>
  <text x="325" y="305" text-anchor="middle" font-size="13" fill="#666" font-weight="600">4</text>
  <rect x="530" y="280" width="190" height="170" rx="6" fill="#f5f5f5" stroke="#d4d4d4" stroke-width="1.5"/>
  <circle cx="550" cy="300" r="14" fill="#e8e8e8" stroke="#999" stroke-width="1.5"/>
  <text x="550" y="305" text-anchor="middle" font-size="13" fill="#666" font-weight="600">5</text>
  <line x1="230" y1="240" x2="175" y2="280" stroke="#d4d4d4" stroke-width="1.5"/>
  <line x1="230" y1="240" x2="400" y2="280" stroke="#d4d4d4" stroke-width="1.5"/>
  <line x1="570" y1="240" x2="625" y2="280" stroke="#d4d4d4" stroke-width="1.5"/>
</svg>
