<svg xmlns="http://www.w3.org/2000/svg" viewBox="0 0 800 500" font-family="system-ui, -apple-system, sans-serif">
  <rect width="800" height="500" fill="#fafafa"/>
  <text x="400" y="35" text-anchor="middle" font-size="16" fill="#666" font-weight="600">Fristen im Arbeitsrecht</text>
  <rect x="40" y="60" width="220" height="420" rx="8" fill="#f5f5f5" stroke="#d4d4d4" stroke-width="1.5"/>
  <text x="150" y="90" text-anchor="middle" font-size="15" fill="#666" font-weight="600">A</text>
  <rect x="60" y="110" width="180" height="40" rx="4" fill="none" stroke="#999" stroke-width="1" stroke-dasharray="6 3"/>
  <rect x="60" y="165" width="180" height="40" rx="4" fill="none" stroke="#999" stroke-width="1" stroke-dasharray="6 3"/>
  <rect x="60" y="220" width="180" height="40" rx="4" fill="none" stroke="#999" stroke-width="1" stroke-dasharray="6 3"/>
  <rect x="60" y="275" width="180" height="40" rx="4" fill="none" stroke="#999" stroke-width="1" stroke-dasharray="6 3"/>
  <rect x="60" y="330" width="180" height="40" rx="4" fill="none" stroke="#999" stroke-width="1" stroke-dasharray="6 3"/>
  <rect x="60" y="385" width="180" height="40" rx="4" fill="none" stroke="#999" stroke-width="1" stroke-dasharray="6 3"/>
  <rect x="290" y="60" width="220" height="420" rx="8" fill="#f5f5f5" stroke="#d4d4d4" stroke-width="1.5"/>
  <text x="400" y="90" text-anchor="middle" font-size="15" fill="#666" font-weight="600">B</text>
  <rect x="310" y="110" width="180" height="40" rx="4" fill="none" stroke="#999" stroke-width="1" stroke-dasharray="6 3"/>
  <rect x="310" y="165" width="180" height="40" rx="4" fill="none" stroke="#999" stroke-width="1" stroke-dasharray="6 3"/>
  <rect x="310" y="220" width="180" height="40" rx="4" fill="none" stroke="#999" stroke-width="1" stroke-dasharray="6 3"/>
  <rect x="310" y="275" width="180" height="40" rx="4" fill="none" stroke="#999" stroke-width="1" stroke-dasharray="6 3"/>
  <rect x="310" y="330" width="180" height="40" rx="4" fill="none" stroke="#999" stroke-width="1" stroke-dasharray="6 3"/>
  <rect x="310" y="385" width="180" height="40" rx="4" fill="none" stroke="#999" stroke-width="1" stroke-dasharray="6 3"/>
  <rect x="540" y="60" width="220" height="420" rx="8" fill="#f5f5f5" stroke="#d4d4d4" stroke-width="1.5"/>
  <text x="650" y="90" text-anchor="middle" font-size="15" fill="#666" font-weight="600">C</text>
  <rect x="560" y="110" width="180" height="40" rx="4" fill="none" stroke="#999" stroke-width="1" stroke-dasharray="6 3"/>
  <rect x="560" y="165" width="180" height="40" rx="4" fill="none" stroke="#999" stroke-width="1" stroke-dasharray="6 3"/>
  <rect x="560" y="220" width="180" height="40" rx="4" fill="none" stroke="#999" stroke-width="1" stroke-dasharray="6 3"/>
  <rect x="560" y="275" width="180" height="40" rx="4" fill="none" stroke="#999" stroke-width="1" stroke-dasharray="6 3"/>
  <rect x="560" y="330" width="180" height="40" rx="4" fill="none" stroke="#999" stroke-width="1" stroke-dasharray="6 3"/>
  <rect x="560" y="385" width="180" height="40" rx="4" fill="none" stroke="#999" stroke-width="1" stroke-dasharray="6 3"/>
</svg>
