<svg xmlns="http://www.w3.org/2000/svg" viewBox="0 0 800 450" width="800" height="450">
  <rect width="800" height="450" fill="#ffffff" rx="8"/>

  <!-- Title -->
  <text x="400" y="32" text-anchor="middle" font-family="'DM Sans',system-ui,sans-serif" font-size="16" font-weight="700" fill="#1e293b">Grundrechts-Prüfschema — Beschrifte die Prüfschritte</text>

  <!-- Step 1: Schutzbereich -->
  <rect x="250" y="50" width="300" height="55" rx="8" fill="#f0fdf4" stroke="#22c55e" stroke-width="2"/>
  <text x="400" y="75" text-anchor="middle" font-family="'DM Sans',system-ui,sans-serif" font-size="12" fill="#1e293b" font-weight="600">Persönlicher Schutzbereich: Wer ist geschützt?</text>
  <text x="400" y="96" text-anchor="middle" font-family="'DM Sans',system-ui,sans-serif" font-size="11" fill="#64748b">Sachlicher Schutzbereich: Was ist geschützt?</text>

  <!-- Arrow 1→2 -->
  <line x1="400" y1="105" x2="400" y2="130" stroke="#94a3b8" stroke-width="2"/>
  <polygon points="393,127 407,127 400,140" fill="#94a3b8"/>

  <!-- Step 2: Eingriff -->
  <rect x="250" y="140" width="300" height="50" rx="8" fill="#f0fdf4" stroke="#22c55e" stroke-width="2"/>
  <text x="400" y="162" text-anchor="middle" font-family="'DM Sans',system-ui,sans-serif" font-size="12" fill="#1e293b" font-weight="600">Liegt ein staatlicher Eingriff vor?</text>
  <text x="400" y="180" text-anchor="middle" font-family="'DM Sans',system-ui,sans-serif" font-size="11" fill="#64748b">Direkt oder indirekt, Gebot oder Verbot</text>

  <!-- Arrow 2→3 -->
  <line x1="400" y1="190" x2="400" y2="215" stroke="#94a3b8" stroke-width="2"/>
  <polygon points="393,212 407,212 400,225" fill="#94a3b8"/>

  <!-- Step 3: Rechtfertigung (3 boxes side by side) -->
  <rect x="60" y="225" width="680" height="55" rx="8" fill="#f0fdf4" stroke="#22c55e" stroke-width="2"/>
  <text x="400" y="247" text-anchor="middle" font-family="'DM Sans',system-ui,sans-serif" font-size="12" fill="#1e293b" font-weight="600">Rechtfertigung (Art. 36 BV) — 3 kumulative Voraussetzungen</text>
  <!-- 3 sub-boxes -->
  <rect x="75" y="255" width="195" height="18" rx="3" fill="#dcfce7" stroke="#86efac" stroke-width="1"/>
  <text x="172" y="268" text-anchor="middle" font-family="'DM Sans',system-ui,sans-serif" font-size="10" fill="#166534">Gesetzliche Grundlage (Art. 36 I)</text>
  <rect x="302" y="255" width="195" height="18" rx="3" fill="#dcfce7" stroke="#86efac" stroke-width="1"/>
  <text x="399" y="268" text-anchor="middle" font-family="'DM Sans',system-ui,sans-serif" font-size="10" fill="#166534">Öffentliches Interesse (Art. 36 II)</text>
  <rect x="529" y="255" width="195" height="18" rx="3" fill="#dcfce7" stroke="#86efac" stroke-width="1"/>
  <text x="626" y="268" text-anchor="middle" font-family="'DM Sans',system-ui,sans-serif" font-size="10" fill="#166534">Verhältnismässigkeit (Art. 36 III)</text>

  <!-- Arrow 3→4 -->
  <line x1="400" y1="280" x2="400" y2="310" stroke="#94a3b8" stroke-width="2"/>
  <polygon points="393,307 407,307 400,320" fill="#94a3b8"/>

  <!-- Step 4: Kerngehalt -->
  <rect x="200" y="320" width="400" height="55" rx="8" fill="#fef9c3" stroke="#ca8a04" stroke-width="2"/>
  <text x="400" y="345" text-anchor="middle" font-family="'DM Sans',system-ui,sans-serif" font-size="12" fill="#92400e" font-weight="700">Kerngehalt (Art. 36 IV BV)</text>
  <text x="400" y="365" text-anchor="middle" font-family="'DM Sans',system-ui,sans-serif" font-size="11" fill="#92400e">Unantastbar — darf NIE verletzt werden</text>

  <!-- Red numbered circles -->
  <!-- 1: Schutzbereich -->
  <line x1="230" y1="70" x2="188" y2="52" stroke="#ef4444" stroke-width="1" stroke-dasharray="3,3"/>
  <circle cx="176" cy="46" r="14" fill="#ef4444"/>
  <text x="176" y="51" text-anchor="middle" font-family="'DM Sans',system-ui,sans-serif" font-size="12" font-weight="700" fill="#ffffff">1</text>

  <!-- 2: Eingriff -->
  <line x1="230" y1="162" x2="188" y2="155" stroke="#ef4444" stroke-width="1" stroke-dasharray="3,3"/>
  <circle cx="176" cy="155" r="14" fill="#ef4444"/>
  <text x="176" y="160" text-anchor="middle" font-family="'DM Sans',system-ui,sans-serif" font-size="12" font-weight="700" fill="#ffffff">2</text>

  <!-- 3: Gesetzliche Grundlage -->
  <line x1="75" y1="264" x2="50" y2="252" stroke="#ef4444" stroke-width="1" stroke-dasharray="3,3"/>
  <circle cx="38" cy="246" r="14" fill="#ef4444"/>
  <text x="38" y="251" text-anchor="middle" font-family="'DM Sans',system-ui,sans-serif" font-size="12" font-weight="700" fill="#ffffff">3</text>

  <!-- 4: Öffentliches Interesse -->
  <line x1="400" y1="255" x2="400" y2="228" stroke="#ef4444" stroke-width="1" stroke-dasharray="3,3"/>
  <circle cx="400" cy="216" r="14" fill="#ef4444"/>
  <text x="400" y="221" text-anchor="middle" font-family="'DM Sans',system-ui,sans-serif" font-size="12" font-weight="700" fill="#ffffff">4</text>

  <!-- 5: Verhältnismässigkeit -->
  <line x1="723" y1="264" x2="748" y2="252" stroke="#ef4444" stroke-width="1" stroke-dasharray="3,3"/>
  <circle cx="760" cy="246" r="14" fill="#ef4444"/>
  <text x="760" y="251" text-anchor="middle" font-family="'DM Sans',system-ui,sans-serif" font-size="12" font-weight="700" fill="#ffffff">5</text>

  <!-- 6: Kerngehalt -->
  <line x1="180" y1="345" x2="150" y2="390" stroke="#ef4444" stroke-width="1" stroke-dasharray="3,3"/>
  <circle cx="140" cy="400" r="14" fill="#ef4444"/>
  <text x="140" y="405" text-anchor="middle" font-family="'DM Sans',system-ui,sans-serif" font-size="12" font-weight="700" fill="#ffffff">6</text>
</svg>
