<svg xmlns="http://www.w3.org/2000/svg" viewBox="0 0 800 450" width="800" height="450">
  <rect width="800" height="450" fill="#ffffff" rx="8"/>

  <!-- Title -->
  <text x="400" y="32" text-anchor="middle" font-family="'DM Sans',system-ui,sans-serif" font-size="16" font-weight="700" fill="#1e293b">Konjunkturzyklus — Beschrifte die markierten Stellen</text>

  <!-- Axes -->
  <line x1="80" y1="380" x2="740" y2="380" stroke="#94a3b8" stroke-width="1.5"/>
  <line x1="80" y1="60" x2="80" y2="380" stroke="#94a3b8" stroke-width="1.5"/>
  <polygon points="740,375 740,385 755,380" fill="#94a3b8"/>
  <polygon points="75,60 85,60 80,45" fill="#94a3b8"/>

  <!-- Axis labels -->
  <text x="400" y="420" text-anchor="middle" font-family="'DM Sans',system-ui,sans-serif" font-size="13" fill="#64748b">Zeit</text>
  <text x="30" y="220" text-anchor="middle" font-family="'DM Sans',system-ui,sans-serif" font-size="13" fill="#64748b" transform="rotate(-90,30,220)">Reales BIP</text>

  <!-- Trend line -->
  <line x1="100" y1="330" x2="720" y2="150" stroke="#94a3b8" stroke-width="2" stroke-dasharray="8,5"/>

  <!-- Konjunkturkurve -->
  <path d="M100,330 C140,330 160,350 200,310 C240,270 260,210 300,190 C340,170 350,180 380,220 C410,260 430,310 460,300 C490,280 510,240 540,200 C570,160 590,140 620,165 C650,190 670,210 710,195"
        stroke="#2563eb" stroke-width="3" fill="none"/>

  <!-- Beschriftungspunkte (nummeriert, mit Linien zur Kurve) -->

  <!-- 1: Trend-Linie -->
  <line x1="600" y1="175" x2="650" y2="120" stroke="#ef4444" stroke-width="1" stroke-dasharray="3,3"/>
  <circle cx="660" cy="112" r="14" fill="#ef4444"/>
  <text x="660" y="117" text-anchor="middle" font-family="'DM Sans',system-ui,sans-serif" font-size="12" font-weight="700" fill="#ffffff">1</text>

  <!-- 2: Aufschwung (steigende Phase) -->
  <line x1="230" y1="280" x2="230" y2="100" stroke="#ef4444" stroke-width="1" stroke-dasharray="3,3"/>
  <circle cx="230" cy="90" r="14" fill="#ef4444"/>
  <text x="230" y="95" text-anchor="middle" font-family="'DM Sans',system-ui,sans-serif" font-size="12" font-weight="700" fill="#ffffff">2</text>

  <!-- 3: Boom (Hochpunkt) -->
  <line x1="300" y1="190" x2="330" y2="90" stroke="#ef4444" stroke-width="1" stroke-dasharray="3,3"/>
  <circle cx="335" cy="82" r="14" fill="#ef4444"/>
  <text x="335" y="87" text-anchor="middle" font-family="'DM Sans',system-ui,sans-serif" font-size="12" font-weight="700" fill="#ffffff">3</text>

  <!-- 4: Abschwung (fallende Phase) -->
  <line x1="390" y1="230" x2="430" y2="120" stroke="#ef4444" stroke-width="1" stroke-dasharray="3,3"/>
  <circle cx="435" cy="112" r="14" fill="#ef4444"/>
  <text x="435" y="117" text-anchor="middle" font-family="'DM Sans',system-ui,sans-serif" font-size="12" font-weight="700" fill="#ffffff">4</text>

  <!-- 5: Rezession / Talsohle (Tiefpunkt) -->
  <line x1="460" y1="300" x2="500" y2="345" stroke="#ef4444" stroke-width="1" stroke-dasharray="3,3"/>
  <circle cx="508" cy="352" r="14" fill="#ef4444"/>
  <text x="508" y="357" text-anchor="middle" font-family="'DM Sans',system-ui,sans-serif" font-size="12" font-weight="700" fill="#ffffff">5</text>

  <!-- Legend -->
  <line x1="100" y1="65" x2="130" y2="65" stroke="#2563eb" stroke-width="3"/>
  <text x="137" y="69" font-family="'DM Sans',system-ui,sans-serif" font-size="11" fill="#1e293b">Tatsächliches BIP</text>
</svg>
