<svg xmlns="http://www.w3.org/2000/svg" viewBox="0 0 800 420" width="800" height="420">
  <rect width="800" height="420" fill="#ffffff" rx="8"/>

  <!-- Title -->
  <text x="400" y="32" text-anchor="middle" font-family="'DM Sans',system-ui,sans-serif" font-size="16" font-weight="700" fill="#1e293b">Konjunkturzyklus — Klicke auf die richtige Phase</text>

  <!-- Axes -->
  <line x1="80" y1="360" x2="740" y2="360" stroke="#94a3b8" stroke-width="1.5"/>
  <line x1="80" y1="60" x2="80" y2="360" stroke="#94a3b8" stroke-width="1.5"/>
  <polygon points="740,355 740,365 755,360" fill="#94a3b8"/>
  <polygon points="75,60 85,60 80,45" fill="#94a3b8"/>

  <!-- Axis labels -->
  <text x="400" y="395" text-anchor="middle" font-family="'DM Sans',system-ui,sans-serif" font-size="13" fill="#64748b">Zeit</text>
  <text x="30" y="210" text-anchor="middle" font-family="'DM Sans',system-ui,sans-serif" font-size="13" fill="#64748b" transform="rotate(-90,30,210)">Reales BIP</text>

  <!-- Trend line -->
  <line x1="100" y1="310" x2="720" y2="140" stroke="#94a3b8" stroke-width="2" stroke-dasharray="8,5"/>
  <text x="725" y="138" font-family="'DM Sans',system-ui,sans-serif" font-size="11" fill="#94a3b8" text-anchor="end">Trend</text>

  <!-- Konjunkturkurve (identisch wie Original) -->
  <path d="M100,310 C140,310 160,330 200,290 C240,250 260,200 300,180 C340,160 350,170 380,210 C410,250 430,290 460,280 C490,270 500,230 530,190 C560,150 580,130 610,155 C640,180 660,200 700,185"
        stroke="#2563eb" stroke-width="3" fill="none"/>

  <!-- Phase markers (A-D) without names -->
  <!-- A: Talsohle (tiefster Punkt ~x=160, y=330) -->
  <circle cx="160" cy="325" r="16" fill="#e2e8f0" stroke="#475569" stroke-width="1.5"/>
  <text x="160" y="330" text-anchor="middle" font-family="'DM Sans',system-ui,sans-serif" font-size="13" font-weight="700" fill="#1e293b">A</text>

  <!-- B: Boom (höchster Punkt ~x=300, y=180) -->
  <circle cx="300" cy="172" r="16" fill="#e2e8f0" stroke="#475569" stroke-width="1.5"/>
  <text x="300" y="177" text-anchor="middle" font-family="'DM Sans',system-ui,sans-serif" font-size="13" font-weight="700" fill="#1e293b">B</text>

  <!-- C: Abschwung (~x=380, y=210) -->
  <circle cx="390" cy="220" r="16" fill="#e2e8f0" stroke="#475569" stroke-width="1.5"/>
  <text x="390" y="225" text-anchor="middle" font-family="'DM Sans',system-ui,sans-serif" font-size="13" font-weight="700" fill="#1e293b">C</text>

  <!-- D: Erholung/Aufschwung (~x=235, y=260) -->
  <circle cx="235" cy="252" r="16" fill="#e2e8f0" stroke="#475569" stroke-width="1.5"/>
  <text x="235" y="257" text-anchor="middle" font-family="'DM Sans',system-ui,sans-serif" font-size="13" font-weight="700" fill="#1e293b">D</text>

  <!-- Legend -->
  <line x1="100" y1="80" x2="130" y2="80" stroke="#2563eb" stroke-width="3"/>
  <text x="137" y="84" font-family="'DM Sans',system-ui,sans-serif" font-size="11" fill="#1e293b">Tatsächliches BIP</text>
  <line x1="260" y1="80" x2="290" y2="80" stroke="#94a3b8" stroke-width="2" stroke-dasharray="8,5"/>
  <text x="297" y="84" font-family="'DM Sans',system-ui,sans-serif" font-size="11" fill="#1e293b">Produktionspotenzial (Trend)</text>
</svg>
