<svg xmlns="http://www.w3.org/2000/svg" viewBox="0 0 800 600" font-family="system-ui, -apple-system, sans-serif">
  <rect width="800" height="600" fill="#fafafa"/>
  <text x="400" y="35" text-anchor="middle" font-size="16" fill="#666" font-weight="600">Grundrechtliches Pruefschema</text>
  <defs>
    <marker id="arrow7" markerWidth="10" markerHeight="7" refX="10" refY="3.5" orient="auto">
      <polygon points="0 0, 10 3.5, 0 7" fill="#999"/>
    </marker>
  </defs>
  <!-- Step 1 -->
  <rect x="250" y="55" width="300" height="60" rx="8" fill="#f5f5f5" stroke="#d4d4d4" stroke-width="1.5"/>
  <circle cx="280" cy="85" r="14" fill="#e8e8e8" stroke="#999" stroke-width="1.5"/>
  <text x="280" y="90" text-anchor="middle" font-size="13" fill="#666" font-weight="600">1</text>
  <line x1="400" y1="115" x2="400" y2="140" stroke="#999" stroke-width="1.5" marker-end="url(#arrow7)"/>
  <!-- Step 2 -->
  <rect x="250" y="150" width="300" height="60" rx="8" fill="#f5f5f5" stroke="#d4d4d4" stroke-width="1.5"/>
  <circle cx="280" cy="180" r="14" fill="#e8e8e8" stroke="#999" stroke-width="1.5"/>
  <text x="280" y="185" text-anchor="middle" font-size="13" fill="#666" font-weight="600">2</text>
  <line x1="400" y1="210" x2="400" y2="235" stroke="#999" stroke-width="1.5" marker-end="url(#arrow7)"/>
  <!-- Step 3 -->
  <rect x="250" y="245" width="300" height="60" rx="8" fill="#f5f5f5" stroke="#d4d4d4" stroke-width="1.5"/>
  <circle cx="280" cy="275" r="14" fill="#e8e8e8" stroke="#999" stroke-width="1.5"/>
  <text x="280" y="280" text-anchor="middle" font-size="13" fill="#666" font-weight="600">3</text>
  <line x1="400" y1="305" x2="400" y2="330" stroke="#999" stroke-width="1.5" marker-end="url(#arrow7)"/>
  <!-- Step 4 -->
  <rect x="250" y="340" width="300" height="60" rx="8" fill="#f5f5f5" stroke="#d4d4d4" stroke-width="1.5"/>
  <circle cx="280" cy="370" r="14" fill="#e8e8e8" stroke="#999" stroke-width="1.5"/>
  <text x="280" y="375" text-anchor="middle" font-size="13" fill="#666" font-weight="600">4</text>
  <line x1="400" y1="400" x2="400" y2="425" stroke="#999" stroke-width="1.5" marker-end="url(#arrow7)"/>
  <!-- Step 5 -->
  <rect x="250" y="435" width="300" height="60" rx="8" fill="#f5f5f5" stroke="#d4d4d4" stroke-width="1.5"/>
  <circle cx="280" cy="465" r="14" fill="#e8e8e8" stroke="#999" stroke-width="1.5"/>
  <text x="280" y="470" text-anchor="middle" font-size="13" fill="#666" font-weight="600">5</text>
  <line x1="400" y1="495" x2="400" y2="520" stroke="#999" stroke-width="1.5" marker-end="url(#arrow7)"/>
  <!-- Step 6 -->
  <rect x="250" y="530" width="300" height="60" rx="8" fill="#f5f5f5" stroke="#d4d4d4" stroke-width="1.5"/>
  <circle cx="280" cy="560" r="14" fill="#e8e8e8" stroke="#999" stroke-width="1.5"/>
  <text x="280" y="565" text-anchor="middle" font-size="13" fill="#666" font-weight="600">6</text>
</svg>
