<svg xmlns="http://www.w3.org/2000/svg" viewBox="0 0 800 520" font-family="'DM Sans', system-ui, sans-serif">
  <!-- White background -->
  <rect width="800" height="520" fill="#ffffff"/>
  
  <!-- Title -->
  <text x="400" y="38" text-anchor="middle" font-size="22" font-weight="700" fill="#1a1a1a">Vom Gewaltmonopol zum Rechtsstaat</text>
  
  <!-- Top box: Gewaltmonopol -->
  <rect x="230" y="60" width="340" height="65" rx="10" fill="#fee2e2" stroke="#dc2626" stroke-width="2"/>
  <text x="400" y="88" text-anchor="middle" font-size="17" font-weight="700" fill="#dc2626">Gewaltmonopol des Staates</text>
  <text x="400" y="110" text-anchor="middle" font-size="12" fill="#7f1d1d">Bürger verzichten auf Selbstjustiz</text>

  <!-- Arrow down -->
  <line x1="400" y1="125" x2="400" y2="160" stroke="#374151" stroke-width="2"/>
  <polygon points="393,155 400,168 407,155" fill="#374151"/>
  
  <!-- "aber:" label -->
  <text x="400" y="180" text-anchor="middle" font-size="14" font-weight="600" fill="#374151">Aber: Wie wird Machtmissbrauch verhindert?</text>
  
  <!-- Arrow splitting into three -->
  <line x1="400" y1="190" x2="400" y2="210" stroke="#374151" stroke-width="1.5"/>
  <line x1="400" y1="210" x2="145" y2="240" stroke="#374151" stroke-width="1.5"/>
  <line x1="400" y1="210" x2="400" y2="240" stroke="#374151" stroke-width="1.5"/>
  <line x1="400" y1="210" x2="655" y2="240" stroke="#374151" stroke-width="1.5"/>

  <!-- Pillar 1: Legalitätsprinzip -->
  <rect x="30" y="240" width="230" height="140" rx="10" fill="#eff6ff" stroke="#2563eb" stroke-width="2"/>
  <text x="145" y="270" text-anchor="middle" font-size="16" font-weight="700" fill="#2563eb">?</text>
  <text x="145" y="292" text-anchor="middle" font-size="12" fill="#1e40af">Art. 5 Abs. 1 BV</text>
  <line x1="60" y1="305" x2="230" y2="305" stroke="#dbeafe" stroke-width="1"/>
  <text x="145" y="325" text-anchor="middle" font-size="12" fill="#374151">Staat muss sich an</text>
  <text x="145" y="343" text-anchor="middle" font-size="12" fill="#374151">Gesetze halten</text>
  <text x="145" y="368" text-anchor="middle" font-size="12" fill="#6b7280" font-style="italic">→ Kein willkürliches Handeln</text>

  <!-- Pillar 2: Gewaltenteilung -->
  <rect x="285" y="240" width="230" height="140" rx="10" fill="#fefce8" stroke="#ca8a04" stroke-width="2"/>
  <text x="400" y="270" text-anchor="middle" font-size="16" font-weight="700" fill="#ca8a04">?</text>
  <text x="400" y="292" text-anchor="middle" font-size="12" fill="#854d0e">Drei Gewalten</text>
  <line x1="315" y1="305" x2="485" y2="305" stroke="#fef9c3" stroke-width="1"/>
  <text x="400" y="325" text-anchor="middle" font-size="12" fill="#374151">Macht aufteilen auf</text>
  <text x="400" y="343" text-anchor="middle" font-size="12" fill="#374151">? / ? / ?</text>
  <text x="400" y="368" text-anchor="middle" font-size="12" fill="#6b7280" font-style="italic">→ Gegenseitige Kontrolle</text>

  <!-- Pillar 3: Grundrechte -->
  <rect x="540" y="240" width="230" height="140" rx="10" fill="#f0fdf4" stroke="#16a34a" stroke-width="2"/>
  <text x="655" y="270" text-anchor="middle" font-size="16" font-weight="700" fill="#16a34a">?</text>
  <text x="655" y="292" text-anchor="middle" font-size="12" fill="#166534">Art. 7–36 BV</text>
  <line x1="570" y1="305" x2="740" y2="305" stroke="#dcfce7" stroke-width="1"/>
  <text x="655" y="325" text-anchor="middle" font-size="12" fill="#374151">Schützen den Einzelnen</text>
  <text x="655" y="343" text-anchor="middle" font-size="12" fill="#374151">vor dem Staat</text>
  <text x="655" y="368" text-anchor="middle" font-size="12" fill="#6b7280" font-style="italic">→ Grenzen der Staatsmacht</text>

  <!-- Base: Rechtsstaat -->
  <rect x="30" y="410" width="740" height="50" rx="10" fill="#f3f4f6" stroke="#374151" stroke-width="2"/>
  <text x="400" y="442" text-anchor="middle" font-size="18" font-weight="700" fill="#374151">= Rechtsstaat (z.B. Schweiz)</text>

  <!-- Connecting lines from pillars to base -->
  <line x1="145" y1="380" x2="145" y2="410" stroke="#9ca3af" stroke-width="1.5"/>
  <line x1="400" y1="380" x2="400" y2="410" stroke="#9ca3af" stroke-width="1.5"/>
  <line x1="655" y1="380" x2="655" y2="410" stroke="#9ca3af" stroke-width="1.5"/>

  <!-- Contrast: Autoritärer Staat -->
  <rect x="180" y="475" width="440" height="35" rx="6" fill="#fef2f2" stroke="#fca5a5" stroke-width="1" stroke-dasharray="4,3"/>
  <text x="400" y="498" text-anchor="middle" font-size="12" fill="#991b1b">⚠ Autoritärer Staat: willkürliche Regeln, zentralisierte Macht, kein Grundrechteschutz</text>
</svg>
