<svg xmlns="http://www.w3.org/2000/svg" viewBox="0 0 800 500" font-family="system-ui, -apple-system, sans-serif">
  <rect width="800" height="500" fill="#fafafa"/>
  <text x="400" y="35" text-anchor="middle" font-size="16" fill="#666" font-weight="600">Rechtsgebiete</text>
  <rect x="50" y="60" width="330" height="420" rx="8" fill="#f5f5f5" stroke="#d4d4d4" stroke-width="1.5"/>
  <text x="215" y="90" text-anchor="middle" font-size="15" fill="#666" font-weight="600">A</text>
  <rect x="70" y="110" width="290" height="36" rx="4" fill="none" stroke="#999" stroke-width="1" stroke-dasharray="6 3"/>
  <rect x="70" y="160" width="290" height="36" rx="4" fill="none" stroke="#999" stroke-width="1" stroke-dasharray="6 3"/>
  <rect x="70" y="210" width="290" height="36" rx="4" fill="none" stroke="#999" stroke-width="1" stroke-dasharray="6 3"/>
  <rect x="70" y="260" width="290" height="36" rx="4" fill="none" stroke="#999" stroke-width="1" stroke-dasharray="6 3"/>
  <rect x="70" y="310" width="290" height="36" rx="4" fill="none" stroke="#999" stroke-width="1" stroke-dasharray="6 3"/>
  <rect x="70" y="360" width="290" height="36" rx="4" fill="none" stroke="#999" stroke-width="1" stroke-dasharray="6 3"/>
  <rect x="70" y="410" width="290" height="36" rx="4" fill="none" stroke="#999" stroke-width="1" stroke-dasharray="6 3"/>
  <rect x="70" y="435" width="290" height="36" rx="4" fill="none" stroke="#999" stroke-width="1" stroke-dasharray="6 3" opacity="0"/>
  <rect x="420" y="60" width="330" height="420" rx="8" fill="#f5f5f5" stroke="#d4d4d4" stroke-width="1.5"/>
  <text x="585" y="90" text-anchor="middle" font-size="15" fill="#666" font-weight="600">B</text>
  <rect x="440" y="110" width="290" height="36" rx="4" fill="none" stroke="#999" stroke-width="1" stroke-dasharray="6 3"/>
  <rect x="440" y="160" width="290" height="36" rx="4" fill="none" stroke="#999" stroke-width="1" stroke-dasharray="6 3"/>
  <rect x="440" y="210" width="290" height="36" rx="4" fill="none" stroke="#999" stroke-width="1" stroke-dasharray="6 3"/>
  <rect x="440" y="260" width="290" height="36" rx="4" fill="none" stroke="#999" stroke-width="1" stroke-dasharray="6 3"/>
  <rect x="440" y="310" width="290" height="36" rx="4" fill="none" stroke="#999" stroke-width="1" stroke-dasharray="6 3"/>
  <rect x="440" y="360" width="290" height="36" rx="4" fill="none" stroke="#999" stroke-width="1" stroke-dasharray="6 3"/>
  <rect x="440" y="410" width="290" height="36" rx="4" fill="none" stroke="#999" stroke-width="1" stroke-dasharray="6 3"/>
  <rect x="440" y="435" width="290" height="36" rx="4" fill="none" stroke="#999" stroke-width="1" stroke-dasharray="6 3" opacity="0"/>
</svg>
