<svg xmlns="http://www.w3.org/2000/svg" viewBox="0 0 800 600" width="800" height="600">
  <rect width="800" height="600" fill="#fefefe"/>
  <!-- Zellmembran (äussere Hülle) -->
  <ellipse cx="400" cy="300" rx="340" ry="240" fill="#f0f7e6" stroke="#7cb342" stroke-width="4"/>
  <text x="200" y="180" font-size="11" fill="#558b2f">Zellmembran</text>
  <!-- Zytoplasma-Punkte -->
  <circle cx="150" cy="250" r="3" fill="#c5e1a5" opacity="0.5"/>
  <circle cx="600" cy="350" r="4" fill="#c5e1a5" opacity="0.5"/>
  <circle cx="250" cy="420" r="3" fill="#c5e1a5" opacity="0.5"/>
  <circle cx="550" cy="200" r="3" fill="#c5e1a5" opacity="0.5"/>
  <!-- Zellkern (Nukleus) -->
  <ellipse cx="400" cy="300" rx="110" ry="90" fill="#e3f2fd" stroke="#1565c0" stroke-width="3"/>
  <ellipse cx="400" cy="300" rx="108" ry="88" fill="none" stroke="#1565c0" stroke-width="1" stroke-dasharray="6,4"/>
  <!-- Nukleolus -->
  <circle cx="400" cy="300" r="30" fill="#bbdefb" stroke="#0d47a1" stroke-width="2"/>
  <text x="400" y="305" text-anchor="middle" font-size="10" fill="#0d47a1">Nukleolus</text>
  <text x="400" y="260" text-anchor="middle" font-size="13" fill="#1565c0" font-weight="bold">Zellkern</text>
  <!-- Mitochondrien -->
  <g transform="translate(560,260) rotate(-20)">
    <ellipse cx="0" cy="0" rx="50" ry="22" fill="#fff3e0" stroke="#e65100" stroke-width="2.5"/>
    <path d="M-35,-10 C-20,10 0,-10 20,10 C30,-10 40,10 45,0" fill="none" stroke="#e65100" stroke-width="1.5"/>
    <text x="0" y="5" text-anchor="middle" font-size="9" fill="#bf360c">Mitochondrium</text>
  </g>
  <g transform="translate(220,380) rotate(15)">
    <ellipse cx="0" cy="0" rx="45" ry="20" fill="#fff3e0" stroke="#e65100" stroke-width="2.5"/>
    <path d="M-30,-8 C-15,8 5,-8 20,8 C30,-8 38,5 40,0" fill="none" stroke="#e65100" stroke-width="1.5"/>
  </g>
  <!-- Endoplasmatisches Retikulum (rauh) -->
  <path d="M280 200 C260 220, 250 240, 260 260 C270 280, 260 300, 250 320" fill="none" stroke="#7b1fa2" stroke-width="2"/>
  <path d="M290 200 C270 220, 260 240, 270 260 C280 280, 270 300, 260 320" fill="none" stroke="#7b1fa2" stroke-width="2"/>
  <circle cx="275" cy="210" r="3" fill="#7b1fa2"/>
  <circle cx="265" cy="230" r="3" fill="#7b1fa2"/>
  <circle cx="270" cy="250" r="3" fill="#7b1fa2"/>
  <circle cx="265" cy="270" r="3" fill="#7b1fa2"/>
  <text x="230" y="340" font-size="9" fill="#4a148c">rER</text>
  <!-- Golgi-Apparat -->
  <g transform="translate(550,400)">
    <path d="M-40,0 C-20,-15 20,-15 40,0" fill="none" stroke="#00695c" stroke-width="3"/>
    <path d="M-35,10 C-15,-5 15,-5 35,10" fill="none" stroke="#00695c" stroke-width="3"/>
    <path d="M-30,20 C-10,5 10,5 30,20" fill="none" stroke="#00695c" stroke-width="3"/>
    <text x="0" y="38" text-anchor="middle" font-size="9" fill="#004d40">Golgi-Apparat</text>
  </g>
  <!-- Ribosomen -->
  <circle cx="330" cy="220" r="4" fill="#795548"/>
  <circle cx="345" cy="235" r="4" fill="#795548"/>
  <circle cx="325" cy="245" r="4" fill="#795548"/>
  <!-- Titel -->
  <text x="400" y="40" text-anchor="middle" font-size="18" fill="#333" font-weight="bold">Tierische Zelle</text>
  <text x="400" y="58" text-anchor="middle" font-size="12" fill="#666">Beschriften Sie die markierten Teile</text>
  <!-- Nummerierte Marker werden von der React-Komponente als interaktive Overlays gerendert -->
</svg>