<svg xmlns="http://www.w3.org/2000/svg" viewBox="0 0 520 320" font-family="DM Sans, system-ui, sans-serif">
  <rect width="520" height="320" fill="#fff" rx="8"/>
  <text x="260" y="28" text-anchor="middle" font-size="14" font-weight="700" fill="#1e293b">Sozialversicherungseinnahmen nach Zweig (2017)</text>

  <!-- Bars (horizontal) -->
  <!-- BV: 39% -->
  <rect x="180" y="55" width="293" height="30" rx="4" fill="#2563eb"/>
  <text x="170" y="75" text-anchor="end" font-size="11" font-weight="500" fill="#334155">Berufl. Vorsorge</text>
  <text x="478" y="75" text-anchor="end" font-size="11" font-weight="700" fill="#fff">39%</text>

  <!-- AHV: 25% -->
  <rect x="180" y="95" width="188" height="30" rx="4" fill="#dc2626"/>
  <text x="170" y="115" text-anchor="end" font-size="11" font-weight="500" fill="#334155">AHV (inkl. EL)</text>
  <text x="373" y="115" text-anchor="end" font-size="11" font-weight="700" fill="#fff">25%</text>

  <!-- KV: 17% -->
  <rect x="180" y="135" width="128" height="30" rx="4" fill="#16a34a"/>
  <text x="170" y="155" text-anchor="end" font-size="11" font-weight="500" fill="#334155">Krankenversicherung</text>
  <text x="312" y="155" text-anchor="end" font-size="11" font-weight="700" fill="#fff">17%</text>

  <!-- UV: 5% -->
  <rect x="180" y="175" width="38" height="30" rx="4" fill="#f89907"/>
  <text x="170" y="195" text-anchor="end" font-size="11" font-weight="500" fill="#334155">Unfallversicherung</text>
  <text x="224" y="195" font-size="10" font-weight="600" fill="#f89907">5%</text>

  <!-- IV: 5% -->
  <rect x="180" y="215" width="38" height="30" rx="4" fill="#7c3aed"/>
  <text x="170" y="235" text-anchor="end" font-size="11" font-weight="500" fill="#334155">IV</text>
  <text x="224" y="235" font-size="10" font-weight="600" fill="#7c3aed">5%</text>

  <!-- ALV: 4% -->
  <rect x="180" y="255" width="30" height="30" rx="4" fill="#0891b2"/>
  <text x="170" y="275" text-anchor="end" font-size="11" font-weight="500" fill="#334155">ALV</text>
  <text x="216" y="275" font-size="10" font-weight="600" fill="#0891b2">4%</text>

  <!-- Übrige: 5% -->
  <rect x="180" y="295" width="38" height="12" rx="3" fill="#94a3b8"/>
  <text x="170" y="305" text-anchor="end" font-size="10" font-weight="500" fill="#64748b">Übrige (EO, FZ)</text>
  <text x="224" y="305" font-size="9" font-weight="600" fill="#94a3b8">5%</text>

  <!-- Summary -->
  <text x="260" y="60" text-anchor="start" font-size="0" fill="none">spacer</text>



  <!-- Total -->
  <text x="260" y="55" text-anchor="middle" font-size="0" fill="none">spacer</text>
</svg>
