<svg xmlns="http://www.w3.org/2000/svg" viewBox="0 0 460 340" width="460" height="340"><rect width="460" height="340" fill="white" rx="8"/><line x1="55" y1="25" x2="55" y2="295" stroke="#334155" stroke-width="2"/><line x1="55" y1="295" x2="430" y2="295" stroke="#334155" stroke-width="2"/><text x="242" y="335" text-anchor="middle" fill="#334155" font-size="13" font-family="DM Sans,system-ui,sans-serif">Menge (Q)</text><text x="16" y="160" text-anchor="middle" fill="#334155" font-size="13" font-family="DM Sans,system-ui,sans-serif" transform="rotate(-90,16,160)">Preis (P)</text><polygon points="215.0,130.0 247.5,152.5 247.5,107.5" fill="#f59e0b" opacity="0.25"/><line x1="85" y1="40" x2="410" y2="265" stroke="#e74c3c" stroke-width="2.5"/><text x="415" y="260" fill="#e74c3c" font-size="13" font-weight="600" font-family="DM Sans,system-ui,sans-serif">N = GN</text><line x1="85" y1="265" x2="410" y2="40" stroke="#2563eb" stroke-width="2.5"/><text x="415" y="55" fill="#2563eb" font-size="13" font-weight="600" font-family="DM Sans,system-ui,sans-serif">A = PK</text><line x1="85" y1="220" x2="410" y2="-5" stroke="#9333ea" stroke-width="2.5" stroke-dasharray="8,4"/><text x="415" y="10" fill="#9333ea" font-size="13" font-weight="600" font-family="DM Sans,system-ui,sans-serif">GK</text><circle cx="247.5" cy="152.5" r="4" fill="#334155" opacity="0.5"/><text x="255.5" y="168.5" fill="#334155" font-size="11" font-weight="600" font-family="DM Sans,system-ui,sans-serif">E_Markt</text><circle cx="215.0" cy="130.0" r="5" fill="#9333ea"/><text x="180.0" y="122.0" fill="#9333ea" font-size="11" font-weight="600" font-family="DM Sans,system-ui,sans-serif">E_Opt</text><line x1="247.5" y1="152.5" x2="247.5" y2="295" stroke="#334155" stroke-width="1" stroke-dasharray="4,3" opacity="0.4"/><line x1="215.0" y1="130.0" x2="215.0" y2="295" stroke="#9333ea" stroke-width="1" stroke-dasharray="4,3"/><text x="247.5" y="310" fill="#334155" font-size="11" font-weight="600" font-family="DM Sans,system-ui,sans-serif" text-anchor="middle">Q_M</text><text x="215.0" y="310" fill="#9333ea" font-size="11" font-weight="600" font-family="DM Sans,system-ui,sans-serif" text-anchor="middle">Q_Opt</text></svg>