<svg xmlns="http://www.w3.org/2000/svg" viewBox="0 0 460 340" width="460" height="340"><rect width="460" height="340" fill="white" rx="8"/><line x1="55" y1="25" x2="55" y2="295" stroke="#334155" stroke-width="2"/><line x1="55" y1="295" x2="430" y2="295" stroke="#334155" stroke-width="2"/><text x="242" y="335" text-anchor="middle" fill="#334155" font-size="13" font-family="DM Sans,system-ui,sans-serif">Menge (Q)</text><text x="16" y="160" text-anchor="middle" fill="#334155" font-size="13" font-family="DM Sans,system-ui,sans-serif" transform="rotate(-90,16,160)">Preis (P)</text><polygon points="55,19.2 178.9,105.0 178.9,200 55,200" fill="#ef4444" opacity="0.15"/><polygon points="55,152.5 178.9,152.5 178.9,200 55,200" fill="#a855f7" opacity="0.15"/><polygon points="178.9,105.0 247.5,152.5 178.9,200" fill="#f59e0b" opacity="0.25"/><polygon points="55,285.8 178.9,200 55,200" fill="#3b82f6" opacity="0.15"/><text x="116.95" y="133.05" fill="#991b1b" font-size="14" font-weight="700" font-family="DM Sans,system-ui,sans-serif" text-anchor="middle">A</text><text x="116.95" y="181.25" fill="#7c3aed" font-size="14" font-weight="700" font-family="DM Sans,system-ui,sans-serif" text-anchor="middle">B</text><text x="201.76666666666665" y="156.5" fill="#92400e" font-size="13" font-weight="700" font-family="DM Sans,system-ui,sans-serif" text-anchor="middle">C</text><text x="96.3" y="233.6" fill="#1e40af" font-size="14" font-weight="700" font-family="DM Sans,system-ui,sans-serif" text-anchor="middle">D</text><line x1="85" y1="40" x2="410" y2="265" stroke="#e74c3c" stroke-width="2.5"/><text x="415" y="260" fill="#e74c3c" font-size="14" font-weight="600" font-family="DM Sans,system-ui,sans-serif">N</text><line x1="85" y1="265" x2="410" y2="40" stroke="#2563eb" stroke-width="2.5"/><text x="415" y="55" fill="#2563eb" font-size="14" font-weight="600" font-family="DM Sans,system-ui,sans-serif">A</text><line x1="55" y1="200" x2="326.1" y2="200" stroke="#dc2626" stroke-width="1.5" stroke-dasharray="8,4"/><text x="47" y="204" fill="#dc2626" font-size="12" font-weight="600" font-family="DM Sans,system-ui,sans-serif" text-anchor="end">P_H</text><circle cx="247.5" cy="152.5" r="4" fill="#334155" opacity="0.3"/><text x="255.5" y="146.5" fill="#334155" font-size="11" font-weight="600" font-family="DM Sans,system-ui,sans-serif" opacity="0.4">E</text><line x1="55" y1="152.5" x2="247.5" y2="152.5" stroke="#334155" stroke-width="1" stroke-dasharray="5,4" opacity="0.3"/><text x="47" y="156.5" fill="#334155" font-size="11" font-weight="600" font-family="DM Sans,system-ui,sans-serif" text-anchor="end" opacity="0.4">P*</text><circle cx="178.9" cy="200" r="4" fill="#2563eb"/><circle cx="316.1" cy="200" r="4" fill="#e74c3c"/><line x1="178.9" y1="200" x2="178.9" y2="295" stroke="#334155" stroke-width="1" stroke-dasharray="5,4"/><line x1="316.1" y1="200" x2="316.1" y2="295" stroke="#e74c3c" stroke-width="1" stroke-dasharray="5,4"/><text x="178.9" y="310" fill="#2563eb" font-size="11" font-weight="600" font-family="DM Sans,system-ui,sans-serif" text-anchor="middle">Q_A</text><text x="316.1" y="310" fill="#e74c3c" font-size="11" font-weight="600" font-family="DM Sans,system-ui,sans-serif" text-anchor="middle">Q_N</text></svg>