<svg xmlns="http://www.w3.org/2000/svg" viewBox="0 0 460 340" width="460" height="340"><rect width="460" height="340" fill="white" rx="8"/><line x1="55" y1="25" x2="55" y2="295" stroke="#334155" stroke-width="2"/><line x1="55" y1="295" x2="430" y2="295" stroke="#334155" stroke-width="2"/><text x="242" y="335" text-anchor="middle" fill="#334155" font-size="13" font-family="DM Sans,system-ui,sans-serif">Menge (Q)</text><text x="16" y="160" text-anchor="middle" fill="#334155" font-size="13" font-family="DM Sans,system-ui,sans-serif" transform="rotate(-90,16,160)">Preis (P)</text><line x1="171.7" y1="205" x2="323.3" y2="205" stroke="#dc2626" stroke-width="2.5"/><line x1="55" y1="205" x2="333.3" y2="205" stroke="#dc2626" stroke-width="1.5" stroke-dasharray="8,4"/><text x="47" y="209" fill="#dc2626" font-size="12" font-weight="600" font-family="DM Sans,system-ui,sans-serif" text-anchor="end">P_H</text><line x1="85" y1="40" x2="410" y2="265" stroke="#e74c3c" stroke-width="2.5"/><text x="415" y="260" fill="#e74c3c" font-size="14" font-weight="600" font-family="DM Sans,system-ui,sans-serif">N</text><line x1="85" y1="265" x2="410" y2="40" stroke="#2563eb" stroke-width="2.5"/><text x="415" y="55" fill="#2563eb" font-size="14" font-weight="600" font-family="DM Sans,system-ui,sans-serif">A</text><circle cx="247.5" cy="152.5" r="4" fill="#334155" opacity="0.3"/><text x="255.5" y="144.5" fill="#334155" font-size="11" font-weight="600" font-family="DM Sans,system-ui,sans-serif" opacity="0.4">E</text><line x1="247.5" y1="152.5" x2="55" y2="152.5" stroke="#334155" stroke-width="1" stroke-dasharray="4,3" opacity="0.3"/><text x="47" y="156.5" fill="#334155" font-size="11" font-weight="600" font-family="DM Sans,system-ui,sans-serif" text-anchor="end" opacity="0.4">P*</text><circle cx="171.7" cy="205" r="4" fill="#2563eb"/><circle cx="323.3" cy="205" r="4" fill="#e74c3c"/><line x1="171.7" y1="205" x2="171.7" y2="295" stroke="#2563eb" stroke-width="1" stroke-dasharray="4,3"/><line x1="323.3" y1="205" x2="323.3" y2="295" stroke="#e74c3c" stroke-width="1" stroke-dasharray="4,3"/><text x="171.7" y="310" fill="#2563eb" font-size="11" font-weight="600" font-family="DM Sans,system-ui,sans-serif" text-anchor="middle">Q_A</text><text x="323.3" y="310" fill="#e74c3c" font-size="11" font-weight="600" font-family="DM Sans,system-ui,sans-serif" text-anchor="middle">Q_N</text></svg>