<svg xmlns="http://www.w3.org/2000/svg" viewBox="0 0 460 340" width="460" height="340"><rect width="460" height="340" fill="white" rx="8"/><line x1="55" y1="25" x2="55" y2="295" stroke="#334155" stroke-width="2"/><line x1="55" y1="295" x2="430" y2="295" stroke="#334155" stroke-width="2"/><text x="242" y="335" text-anchor="middle" fill="#334155" font-size="13" font-family="DM Sans,system-ui,sans-serif">Menge (Q)</text><text x="16" y="160" text-anchor="middle" fill="#334155" font-size="13" font-family="DM Sans,system-ui,sans-serif" transform="rotate(-90,16,160)">Preis (P)</text><polygon points="55,-43.9 224.6,148.9 55,148.9" fill="#ef4444" opacity="0.15"/><polygon points="55,148.9 224.6,148.9 224.6,189.8 55,189.8" fill="#8b5cf6" opacity="0.15"/><polygon points="224.6,148.9 260.7,189.8 224.6,189.8" fill="#f59e0b" opacity="0.22"/><polygon points="55,189.8 224.6,189.8 224.6,198.8 55,198.8" fill="#8b5cf6" opacity="0.15"/><polygon points="224.6,189.8 260.7,189.8 224.6,198.8" fill="#f59e0b" opacity="0.22"/><polygon points="55,241.2 224.6,198.8 55,198.8" fill="#3b82f6" opacity="0.15"/><text x="111.53333333333335" y="89.63333333333334" fill="#991b1b" font-size="14" font-weight="700" font-family="DM Sans,system-ui,sans-serif" text-anchor="middle">A</text><text x="139.8" y="174.35000000000002" fill="#5b21b6" font-size="13" font-weight="700" font-family="DM Sans,system-ui,sans-serif" text-anchor="middle">B</text><text x="236.63333333333333" y="180.16666666666666" fill="#92400e" font-size="12" font-weight="700" font-family="DM Sans,system-ui,sans-serif" text-anchor="middle">C</text><text x="139.8" y="199.3" fill="#5b21b6" font-size="13" font-weight="700" font-family="DM Sans,system-ui,sans-serif" text-anchor="middle">D</text><text x="236.63333333333333" y="196.80000000000004" fill="#92400e" font-size="12" font-weight="700" font-family="DM Sans,system-ui,sans-serif" text-anchor="middle">E</text><text x="111.53333333333335" y="217.9333333333333" fill="#1e40af" font-size="14" font-weight="700" font-family="DM Sans,system-ui,sans-serif" text-anchor="middle">F</text><line x1="120" y1="30" x2="340" y2="280" stroke="#e74c3c" stroke-width="2.5"/><text x="345" y="285" fill="#e74c3c" font-size="14" font-weight="600" font-family="DM Sans,system-ui,sans-serif">N</text><line x1="60" y1="240" x2="420" y2="150" stroke="#2563eb" stroke-width="2.5"/><text x="425" y="145" fill="#2563eb" font-size="14" font-weight="600" font-family="DM Sans,system-ui,sans-serif">A</text><circle cx="260.7" cy="189.8" r="4" fill="#334155" opacity="0.35"/><circle cx="224.6" cy="148.9" r="4" fill="#e74c3c"/><circle cx="224.6" cy="198.8" r="4" fill="#2563eb"/><line x1="55" y1="148.9" x2="224.6" y2="148.9" stroke="#334155" stroke-width="1" stroke-dasharray="5,4"/><line x1="55" y1="198.8" x2="224.6" y2="198.8" stroke="#334155" stroke-width="1" stroke-dasharray="5,4"/><line x1="55" y1="189.8" x2="260.7" y2="189.8" stroke="#334155" stroke-width="1" stroke-dasharray="5,4" opacity="0.4"/><line x1="224.6" y1="198.8" x2="224.6" y2="295" stroke="#334155" stroke-width="1" stroke-dasharray="5,4"/><text x="47" y="152.9" fill="#e74c3c" font-size="11" font-weight="600" font-family="DM Sans,system-ui,sans-serif" text-anchor="end">P_K</text><text x="47" y="202.8" fill="#2563eb" font-size="11" font-weight="600" font-family="DM Sans,system-ui,sans-serif" text-anchor="end">P_P</text><text x="47" y="193.8" fill="#334155" font-size="11" font-weight="600" font-family="DM Sans,system-ui,sans-serif" text-anchor="end" opacity="0.5">P*</text><text x="224.6" y="310" fill="#334155" font-size="11" font-weight="600" font-family="DM Sans,system-ui,sans-serif" text-anchor="middle">Q_t</text><text x="350" y="290" fill="#64748b" font-size="10" font-weight="400" font-family="DM Sans,system-ui,sans-serif">unelastische N, elastisches A</text></svg>