<svg xmlns="http://www.w3.org/2000/svg" viewBox="0 0 800 450" width="800" height="450">
  <rect width="800" height="450" fill="#ffffff" rx="8"/>

  <!-- Title -->
  <text x="400" y="32" text-anchor="middle" font-family="'DM Sans',system-ui,sans-serif" font-size="16" font-weight="700" fill="#1e293b">Rechtsanwendung — Beschrifte die Schritte der Subsumtion</text>

  <!-- Step boxes -->
  <!-- Step 1: Obersatz -->
  <rect x="80" y="65" width="640" height="70" rx="8" fill="#f0fdf4" stroke="#86efac" stroke-width="2"/>
  <text x="400" y="95" text-anchor="middle" font-family="'DM Sans',system-ui,sans-serif" font-size="13" fill="#1e293b" font-weight="600">?</text>
  <text x="400" y="118" text-anchor="middle" font-family="'DM Sans',system-ui,sans-serif" font-size="12" fill="#64748b">?</text>

  <!-- Arrow 1→2 -->
  <line x1="400" y1="135" x2="400" y2="165" stroke="#94a3b8" stroke-width="2"/>
  <polygon points="393,162 407,162 400,175" fill="#94a3b8"/>

  <!-- Step 2: Untersatz -->
  <rect x="80" y="175" width="640" height="70" rx="8" fill="#f0fdf4" stroke="#86efac" stroke-width="2"/>
  <text x="400" y="205" text-anchor="middle" font-family="'DM Sans',system-ui,sans-serif" font-size="13" fill="#1e293b" font-weight="600">?</text>
  <text x="400" y="228" text-anchor="middle" font-family="'DM Sans',system-ui,sans-serif" font-size="12" fill="#64748b">?</text>

  <!-- Arrow 2→3 -->
  <line x1="400" y1="245" x2="400" y2="275" stroke="#94a3b8" stroke-width="2"/>
  <polygon points="393,272 407,272 400,285" fill="#94a3b8"/>

  <!-- Step 3: Subsumtion -->
  <rect x="80" y="285" width="640" height="70" rx="8" fill="#f0fdf4" stroke="#86efac" stroke-width="2"/>
  <text x="400" y="315" text-anchor="middle" font-family="'DM Sans',system-ui,sans-serif" font-size="13" fill="#1e293b" font-weight="600">?</text>
  <text x="400" y="338" text-anchor="middle" font-family="'DM Sans',system-ui,sans-serif" font-size="12" fill="#64748b">?</text>

  <!-- Arrow 3→4 -->
  <line x1="400" y1="355" x2="400" y2="385" stroke="#94a3b8" stroke-width="2"/>
  <polygon points="393,382 407,382 400,395" fill="#94a3b8"/>

  <!-- Step 4: Schlussfolgerung -->
  <rect x="80" y="395" width="640" height="40" rx="8" fill="#dcfce7" stroke="#22c55e" stroke-width="2"/>
  <text x="400" y="420" text-anchor="middle" font-family="'DM Sans',system-ui,sans-serif" font-size="13" fill="#15803d" font-weight="600">?</text>

  <!-- Beschriftungs-Kreise (rot, nummeriert) -->
  <!-- 1: Obersatz -->

  <!-- 2: Untersatz -->

  <!-- 3: Subsumtion -->

  <!-- 4: Schlussfolgerung -->
</svg>
