<svg xmlns="http://www.w3.org/2000/svg" viewBox="0 0 800 600" font-family="system-ui,-apple-system,sans-serif">
  <rect width="800" height="600" fill="#fff"/>
  <defs>
    <marker id="arrow" viewBox="0 0 10 10" refX="5" refY="5" markerWidth="8" markerHeight="8" orient="auto-start-reverse">
      <path d="M 0 0 L 10 5 L 0 10 z" fill="#999"/>
    </marker>
  </defs>
  <!-- Box 1 (bottom) -->
  <rect x="250" y="480" width="300" height="70" rx="8" fill="#f5f5f5" stroke="#e8e8e8" stroke-width="2"/>
  <circle cx="240" cy="515" r="14" fill="#e8e8e8" stroke="#999" stroke-width="1.5"/>
  <text x="240" y="520" text-anchor="middle" fill="#666" font-size="14" font-weight="bold">1</text>
  <!-- Arrow up -->
  <line x1="400" y1="480" x2="400" y2="445" stroke="#999" stroke-width="2" marker-end="url(#arrow)"/>
  <!-- Box 2 -->
  <rect x="250" y="370" width="300" height="70" rx="8" fill="#f5f5f5" stroke="#e8e8e8" stroke-width="2"/>
  <circle cx="240" cy="405" r="14" fill="#e8e8e8" stroke="#999" stroke-width="1.5"/>
  <text x="240" y="410" text-anchor="middle" fill="#666" font-size="14" font-weight="bold">2</text>
  <!-- Arrow up -->
  <line x1="400" y1="370" x2="400" y2="335" stroke="#999" stroke-width="2" marker-end="url(#arrow)"/>
  <!-- Box 3 -->
  <rect x="250" y="260" width="300" height="70" rx="8" fill="#f5f5f5" stroke="#e8e8e8" stroke-width="2"/>
  <circle cx="240" cy="295" r="14" fill="#e8e8e8" stroke="#999" stroke-width="1.5"/>
  <text x="240" y="300" text-anchor="middle" fill="#666" font-size="14" font-weight="bold">3</text>
  <!-- Arrow up -->
  <line x1="400" y1="260" x2="400" y2="225" stroke="#999" stroke-width="2" marker-end="url(#arrow)"/>
  <!-- Box 4 -->
  <rect x="250" y="150" width="300" height="70" rx="8" fill="#f5f5f5" stroke="#e8e8e8" stroke-width="2"/>
  <circle cx="240" cy="185" r="14" fill="#e8e8e8" stroke="#999" stroke-width="1.5"/>
  <text x="240" y="190" text-anchor="middle" fill="#666" font-size="14" font-weight="bold">4</text>
  <!-- Arrow up -->
  <line x1="400" y1="150" x2="400" y2="115" stroke="#999" stroke-width="2" marker-end="url(#arrow)"/>
  <!-- Box 5 (top) -->
  <rect x="250" y="40" width="300" height="70" rx="8" fill="#f5f5f5" stroke="#e8e8e8" stroke-width="2"/>
  <circle cx="240" cy="75" r="14" fill="#e8e8e8" stroke="#999" stroke-width="1.5"/>
  <text x="240" y="80" text-anchor="middle" fill="#666" font-size="14" font-weight="bold">5</text>
</svg>