<svg xmlns="http://www.w3.org/2000/svg" viewBox="0 0 460 340" width="460" height="340"><rect width="460" height="340" fill="white" rx="8"/><line x1="55" y1="25" x2="55" y2="295" stroke="#334155" stroke-width="2"/><line x1="55" y1="295" x2="430" y2="295" stroke="#334155" stroke-width="2"/><text x="242" y="335" text-anchor="middle" fill="#334155" font-size="13" font-family="DM Sans,system-ui,sans-serif">Menge (Q)</text><text x="16" y="160" text-anchor="middle" fill="#334155" font-size="13" font-family="DM Sans,system-ui,sans-serif" transform="rotate(-90,16,160)">Preis (P)</text><polygon points="55,138.9 180.5,166.8 55,166.8" fill="#ef4444" opacity="0.15"/><polygon points="55,166.8 180.5,166.8 180.5,175.6 55,175.6" fill="#8b5cf6" opacity="0.15"/><polygon points="180.5,166.8 220.1,175.6 180.5,175.6" fill="#f59e0b" opacity="0.22"/><polygon points="55,175.6 180.5,175.6 180.5,216.9 55,216.9" fill="#8b5cf6" opacity="0.15"/><polygon points="180.5,175.6 220.1,175.6 180.5,216.9" fill="#f59e0b" opacity="0.22"/><polygon points="55,347.8 180.5,216.9 55,216.9" fill="#3b82f6" opacity="0.15"/><text x="96.83333333333333" y="162.50000000000003" fill="#991b1b" font-size="14" font-weight="700" font-family="DM Sans,system-ui,sans-serif" text-anchor="middle">A</text><text x="117.75" y="176.2" fill="#5b21b6" font-size="13" font-weight="700" font-family="DM Sans,system-ui,sans-serif" text-anchor="middle">B</text><text x="193.70000000000002" y="176.66666666666666" fill="#92400e" font-size="12" font-weight="700" font-family="DM Sans,system-ui,sans-serif" text-anchor="middle">C</text><text x="117.75" y="201.25" fill="#5b21b6" font-size="13" font-weight="700" font-family="DM Sans,system-ui,sans-serif" text-anchor="middle">D</text><text x="193.70000000000002" y="193.36666666666667" fill="#92400e" font-size="12" font-weight="700" font-family="DM Sans,system-ui,sans-serif" text-anchor="middle">E</text><text x="96.83333333333333" y="265.53333333333336" fill="#1e40af" font-size="14" font-weight="700" font-family="DM Sans,system-ui,sans-serif" text-anchor="middle">F</text><line x1="60" y1="140" x2="420" y2="220" stroke="#e74c3c" stroke-width="2.5"/><text x="425" y="225" fill="#e74c3c" font-size="14" font-weight="600" font-family="DM Sans,system-ui,sans-serif">N</text><line x1="120" y1="280" x2="350" y2="40" stroke="#2563eb" stroke-width="2.5"/><text x="355" y="50" fill="#2563eb" font-size="14" font-weight="600" font-family="DM Sans,system-ui,sans-serif">A</text><circle cx="220.1" cy="175.6" r="4" fill="#334155" opacity="0.35"/><circle cx="180.5" cy="166.8" r="4" fill="#e74c3c"/><circle cx="180.5" cy="216.9" r="4" fill="#2563eb"/><line x1="55" y1="166.8" x2="180.5" y2="166.8" stroke="#334155" stroke-width="1" stroke-dasharray="5,4"/><line x1="55" y1="216.9" x2="180.5" y2="216.9" stroke="#334155" stroke-width="1" stroke-dasharray="5,4"/><line x1="55" y1="175.6" x2="220.1" y2="175.6" stroke="#334155" stroke-width="1" stroke-dasharray="5,4" opacity="0.4"/><line x1="180.5" y1="216.9" x2="180.5" y2="295" stroke="#334155" stroke-width="1" stroke-dasharray="5,4"/><text x="47" y="170.8" fill="#e74c3c" font-size="11" font-weight="600" font-family="DM Sans,system-ui,sans-serif" text-anchor="end">P_K</text><text x="47" y="220.9" fill="#2563eb" font-size="11" font-weight="600" font-family="DM Sans,system-ui,sans-serif" text-anchor="end">P_P</text><text x="47" y="179.6" fill="#334155" font-size="11" font-weight="600" font-family="DM Sans,system-ui,sans-serif" text-anchor="end" opacity="0.5">P*</text><text x="180.5" y="310" fill="#334155" font-size="11" font-weight="600" font-family="DM Sans,system-ui,sans-serif" text-anchor="middle">Q_t</text><text x="350" y="290" fill="#64748b" font-size="10" font-weight="400" font-family="DM Sans,system-ui,sans-serif">elastische N, unelastisches A</text></svg>