<svg xmlns="http://www.w3.org/2000/svg" viewBox="0 0 800 380" font-family="'DM Sans', system-ui, sans-serif">
  <rect width="800" height="380" fill="#ffffff"/>
  
  <!-- Title -->
  <text x="400" y="30" text-anchor="middle" font-size="17" font-weight="700" fill="#1e293b">Tauschwirtschaft vs. Geldwirtschaft</text>
  
  <!-- Left: Tauschwirtschaft -->
  <text x="200" y="62" text-anchor="middle" font-size="14" font-weight="700" fill="#dc2626">Tauschwirtschaft</text>
  <text x="200" y="78" text-anchor="middle" font-size="10" fill="#94a3b8">Jeder tauscht mit jedem direkt</text>
  
  <!-- Persons in circle (left) -->
  <circle cx="200" cy="155" r="22" fill="#fee2e2" stroke="#dc2626" stroke-width="1.5"/>
  <text x="200" y="161" text-anchor="middle" font-size="12" font-weight="600" fill="#dc2626">A</text>
  
  <circle cx="280" cy="200" r="22" fill="#fee2e2" stroke="#dc2626" stroke-width="1.5"/>
  <text x="280" y="206" text-anchor="middle" font-size="12" font-weight="600" fill="#dc2626">B</text>
  
  <circle cx="260" cy="290" r="22" fill="#fee2e2" stroke="#dc2626" stroke-width="1.5"/>
  <text x="260" y="296" text-anchor="middle" font-size="12" font-weight="600" fill="#dc2626">C</text>
  
  <circle cx="140" cy="290" r="22" fill="#fee2e2" stroke="#dc2626" stroke-width="1.5"/>
  <text x="140" y="296" text-anchor="middle" font-size="12" font-weight="600" fill="#dc2626">D</text>
  
  <circle cx="120" cy="200" r="22" fill="#fee2e2" stroke="#dc2626" stroke-width="1.5"/>
  <text x="120" y="206" text-anchor="middle" font-size="12" font-weight="600" fill="#dc2626">E</text>
  
  <!-- Connections (all pairs) - 10 lines for 5 persons -->
  <line x1="200" y1="177" x2="280" y2="200" stroke="#dc2626" stroke-width="1.2" opacity="0.35"/>
  <line x1="200" y1="177" x2="260" y2="268" stroke="#dc2626" stroke-width="1.2" opacity="0.35"/>
  <line x1="200" y1="177" x2="140" y2="268" stroke="#dc2626" stroke-width="1.2" opacity="0.35"/>
  <line x1="200" y1="177" x2="120" y2="200" stroke="#dc2626" stroke-width="1.2" opacity="0.35"/>
  <line x1="280" y1="222" x2="260" y2="268" stroke="#dc2626" stroke-width="1.2" opacity="0.35"/>
  <line x1="280" y1="222" x2="140" y2="268" stroke="#dc2626" stroke-width="1.2" opacity="0.35"/>
  <line x1="280" y1="222" x2="120" y2="200" stroke="#dc2626" stroke-width="1.2" opacity="0.35"/>
  <line x1="260" y1="290" x2="140" y2="290" stroke="#dc2626" stroke-width="1.2" opacity="0.35"/>
  <line x1="260" y1="268" x2="120" y2="200" stroke="#dc2626" stroke-width="1.2" opacity="0.35"/>
  <line x1="140" y1="268" x2="120" y2="200" stroke="#dc2626" stroke-width="1.2" opacity="0.35"/>
  
  <!-- Count -->
  <rect x="135" y="335" width="130" height="26" rx="6" fill="#fef2f2" stroke="#dc2626" stroke-width="1"/>
  <text x="200" y="353" text-anchor="middle" font-size="11" font-weight="600" fill="#dc2626">10 Tauschbeziehungen</text>
  
  <!-- Divider -->
  <line x1="400" y1="55" x2="400" y2="370" stroke="#e2e8f0" stroke-width="1.5" stroke-dasharray="6,4"/>
  <text x="400" y="375" text-anchor="middle" font-size="10" fill="#94a3b8">vs.</text>
  
  <!-- Right: Geldwirtschaft -->
  <text x="600" y="62" text-anchor="middle" font-size="14" font-weight="700" fill="#16a34a">Geldwirtschaft</text>
  <text x="600" y="78" text-anchor="middle" font-size="10" fill="#94a3b8">Alle tauschen über Geld (CHF)</text>
  
  <!-- Central money node -->
  <circle cx="600" cy="230" r="32" fill="#f0fdf4" stroke="#16a34a" stroke-width="2.5"/>
  <text x="600" y="226" text-anchor="middle" font-size="12" font-weight="700" fill="#16a34a">CHF</text>
  <text x="600" y="242" text-anchor="middle" font-size="18">💰</text>
  
  <!-- Persons around money (right) -->
  <circle cx="600" cy="130" r="22" fill="#dcfce7" stroke="#16a34a" stroke-width="1.5"/>
  <text x="600" y="136" text-anchor="middle" font-size="12" font-weight="600" fill="#16a34a">A</text>
  
  <circle cx="695" cy="185" r="22" fill="#dcfce7" stroke="#16a34a" stroke-width="1.5"/>
  <text x="695" y="191" text-anchor="middle" font-size="12" font-weight="600" fill="#16a34a">B</text>
  
  <circle cx="670" cy="295" r="22" fill="#dcfce7" stroke="#16a34a" stroke-width="1.5"/>
  <text x="670" y="301" text-anchor="middle" font-size="12" font-weight="600" fill="#16a34a">C</text>
  
  <circle cx="530" cy="295" r="22" fill="#dcfce7" stroke="#16a34a" stroke-width="1.5"/>
  <text x="530" y="301" text-anchor="middle" font-size="12" font-weight="600" fill="#16a34a">D</text>
  
  <circle cx="505" cy="185" r="22" fill="#dcfce7" stroke="#16a34a" stroke-width="1.5"/>
  <text x="505" y="191" text-anchor="middle" font-size="12" font-weight="600" fill="#16a34a">E</text>
  
  <!-- Connections to center only - 5 lines -->
  <line x1="600" y1="152" x2="600" y2="198" stroke="#16a34a" stroke-width="1.5" opacity="0.5"/>
  <line x1="673" y1="185" x2="632" y2="220" stroke="#16a34a" stroke-width="1.5" opacity="0.5"/>
  <line x1="652" y1="282" x2="622" y2="252" stroke="#16a34a" stroke-width="1.5" opacity="0.5"/>
  <line x1="548" y1="282" x2="578" y2="252" stroke="#16a34a" stroke-width="1.5" opacity="0.5"/>
  <line x1="527" y1="185" x2="568" y2="220" stroke="#16a34a" stroke-width="1.5" opacity="0.5"/>
  
  <!-- Count -->
  <rect x="535" y="335" width="130" height="26" rx="6" fill="#f0fdf4" stroke="#16a34a" stroke-width="1"/>
  <text x="600" y="353" text-anchor="middle" font-size="11" font-weight="600" fill="#16a34a">5 Preise genügen</text>
</svg>
