<svg xmlns="http://www.w3.org/2000/svg" viewBox="0 0 600 420" font-family="'DM Sans', system-ui, sans-serif">
  <rect width="600" height="420" fill="#ffffff"/>
  
  <!-- Title -->
  <text x="300" y="30" text-anchor="middle" font-size="16" font-weight="700" fill="#1e293b">Gleichgewicht von Geldangebot und Geldnachfrage</text>
  
  <!-- Axes -->
  <line x1="80" y1="50" x2="80" y2="360" stroke="#1e293b" stroke-width="2"/>
  <line x1="80" y1="360" x2="560" y2="360" stroke="#1e293b" stroke-width="2"/>
  
  <!-- Arrowheads -->
  <polygon points="80,50 75,60 85,60" fill="#1e293b"/>
  <polygon points="560,360 550,355 550,365" fill="#1e293b"/>
  
  <!-- Axis labels -->
  <text x="40" y="200" text-anchor="middle" font-size="12" fill="#1e293b" transform="rotate(-90,40,200)">Kaufkraft des Geldes</text>
  <text x="320" y="395" text-anchor="middle" font-size="12" fill="#1e293b">Geldmenge</text>
  
  <!-- Supply curve (vertical) -->
  <line x1="300" y1="70" x2="300" y2="340" stroke="#2563eb" stroke-width="2.5"/>
  <text x="310" y="85" font-size="13" font-weight="600" fill="#2563eb">Geldangebot</text>
  
  <!-- Demand curve (downward sloping) -->
  <line x1="120" y1="90" x2="520" y2="330" stroke="#dc2626" stroke-width="2.5"/>
  <text x="440" y="310" font-size="13" font-weight="600" fill="#dc2626">Geldnachfrage</text>
  
  <!-- Equilibrium point -->
  <circle cx="300" cy="213" r="5" fill="#16a34a"/>
  
  <!-- Dashed lines to axes -->
  <line x1="80" y1="213" x2="300" y2="213" stroke="#94a3b8" stroke-width="1" stroke-dasharray="5,4"/>
  <line x1="300" y1="213" x2="300" y2="360" stroke="#94a3b8" stroke-width="1" stroke-dasharray="5,4"/>
  
  <!-- Equilibrium label -->
  <text x="320" y="206" font-size="11" fill="#16a34a" font-weight="600">Gleichgewicht</text>
  
  <!-- Axis markers -->
  <text x="70" y="217" text-anchor="end" font-size="10" fill="#64748b">P*</text>
  <text x="300" y="377" text-anchor="middle" font-size="10" fill="#64748b">M*</text>
</svg>
